<svg id="image" xmlns="http://www.w3.org/2000/svg" xmlns:xlink="http://www.w3.org/1999/xlink" width="369.906" height="235.115" viewBox="0 0 369.906 235.115">
  <defs>
    <linearGradient id="linear-gradient" x1="0.5" y1="1" x2="0.5" gradientUnits="objectBoundingBox">
      <stop offset="0.2" stop-color="gray" stop-opacity="0.4"/>
      <stop offset="0.46" stop-color="gray" stop-opacity="0.502"/>
      <stop offset="1" stop-opacity="0.6"/>
    </linearGradient>
    <linearGradient id="linear-gradient-2" x1="0.5" y1="1" x2="0.5" gradientUnits="objectBoundingBox">
      <stop offset="0" stop-color="gray" stop-opacity="0.251"/>
      <stop offset="0.54" stop-color="gray" stop-opacity="0.122"/>
      <stop offset="1" stop-color="gray" stop-opacity="0.102"/>
    </linearGradient>
  </defs>
  <path id="Trazado_1683" data-name="Trazado 1683" d="M422.514,601.392c0,13.94-81.471,65.275-183.221,65.275S57.45,611.961,57.45,598.021s80.094,18.157,181.843,18.157S422.514,587.439,422.514,601.392Z" transform="translate(-53.56 -431.551)" fill="#3f3d56"/>
  <path id="Trazado_1684" data-name="Trazado 1684" d="M414.974,240.107v.559c-.223,5.794-3.646,11.556-9.892,15.624-6.626,4.311-15.512,6.579-24.634,8.027-1.427.226-2.86.43-4.29.628-.73.094-1.457.189-2.18.276-20.308,2.513-41.043,2.994-61.681,3.456-21.588.5-43.2,1-64.807,1.257l-4.286.047c-32.79.333-65.567.053-98.238-1.7-10.139-.54-20.378-1.257-30.43-2.463q-2.15-.248-4.286-.544c-13.332-1.8-26.268-4.562-38.053-9.045a87.334,87.334,0,0,1-8.153-3.55c-7.4-3.7-13.645-8.389-16.735-14.138a18.853,18.853,0,0,1-2.133-10.908,24.19,24.19,0,0,1,.743-4.044,34.96,34.96,0,0,1,4.21-9.334c4.813-7.672,12.042-14.55,18.275-21.754,13.305-15.354,21.971-34.755,9.692-50.492-3.523-4.521-8.616-8.483-11.486-13.211a20.428,20.428,0,0,1-2.813-8.3,28.168,28.168,0,0,1-.177-4.044,53.04,53.04,0,0,1,1.25-9.375c2-9.652,5.736-20.057,17.275-26.077,7.876-4.11,17.915-5.385,28.094-5.143q2.143.047,4.286.189c3.9.242,7.783.688,11.529,1.257,23.145,3.484,44.506,10.764,66.07,17.337,16.418,5,33.424,9.68,51.069,11.911,1.427.179,2.853.346,4.286.49q6.2.641,12.516.826c20.935.566,45.359-3.707,59.261-14.8,13.429-10.726,38.613-11.59,56.891-5.184l.273.1q2.063.741,4,1.6c13.469,5.969,22.491,16.193,23.764,26.891a22,22,0,0,1,.113,4,.158.158,0,0,1,0,.041c-.873,13.161-12.285,24.214-23.874,35.286-1.433,1.367-2.87,2.733-4.29,4.109a148.11,148.11,0,0,0-10.562,11.078,52.019,52.019,0,0,0-3.973,5.373,33.916,33.916,0,0,0-2.823,5.41,21.442,21.442,0,0,0-1.556,6.064,15.07,15.07,0,0,0,1.666,8.671l.03.063c3.093,5.781,9.639,9.878,17.218,13.51,1.4.672,2.833,1.326,4.29,1.973,8.219,3.657,17.075,7.053,23.808,11.568a35.26,35.26,0,0,1,5.06,4.022,24.786,24.786,0,0,1,1.787,1.938,16.417,16.417,0,0,1,3.893,10.271C414.974,239.937,414.974,240.022,414.974,240.107Z" transform="translate(-45.067 -75.83)" fill="#ee8933"/>
  <path id="Trazado_1685" data-name="Trazado 1685" d="M414.974,240.107v.559c-.223,5.794-3.646,11.556-9.892,15.624-6.626,4.311-15.512,6.579-24.634,8.027-1.427.226-2.86.43-4.29.628-.73.094-1.457.189-2.18.276-20.308,2.513-41.043,2.994-61.681,3.456-21.588.5-43.2,1-64.807,1.257l-4.286.047c-32.79.333-65.567.053-98.238-1.7-10.139-.54-20.378-1.257-30.43-2.463q-2.15-.248-4.286-.544c-13.332-1.8-26.268-4.562-38.053-9.045a87.334,87.334,0,0,1-8.153-3.55c-7.4-3.7-13.645-8.389-16.735-14.138a18.853,18.853,0,0,1-2.133-10.908,24.19,24.19,0,0,1,.743-4.044,34.96,34.96,0,0,1,4.21-9.334c4.813-7.672,12.042-14.55,18.275-21.754,13.305-15.354,21.971-34.755,9.692-50.492-3.523-4.521-8.616-8.483-11.486-13.211a20.428,20.428,0,0,1-2.813-8.3,28.168,28.168,0,0,1-.177-4.044,53.04,53.04,0,0,1,1.25-9.375c2-9.652,5.736-20.057,17.275-26.077,7.876-4.11,17.915-5.385,28.094-5.143q2.143.047,4.286.189c3.9.242,7.783.688,11.529,1.257,23.145,3.484,44.506,10.764,66.07,17.337,16.418,5,33.424,9.68,51.069,11.911,1.427.179,2.853.346,4.286.49q6.2.641,12.516.826c20.935.566,45.359-3.707,59.261-14.8,13.429-10.726,38.613-11.59,56.891-5.184l.273.1q2.063.741,4,1.6c13.469,5.969,22.491,16.193,23.764,26.891a22,22,0,0,1,.113,4,.158.158,0,0,1,0,.041c-.873,13.161-12.285,24.214-23.874,35.286-1.433,1.367-2.87,2.733-4.29,4.109a148.11,148.11,0,0,0-10.562,11.078,52.019,52.019,0,0,0-3.973,5.373,33.916,33.916,0,0,0-2.823,5.41,21.442,21.442,0,0,0-1.556,6.064,15.07,15.07,0,0,0,1.666,8.671l.03.063c3.093,5.781,9.639,9.878,17.218,13.51,1.4.672,2.833,1.326,4.29,1.973,8.219,3.657,17.075,7.053,23.808,11.568a35.26,35.26,0,0,1,5.06,4.022,24.786,24.786,0,0,1,1.787,1.938,16.417,16.417,0,0,1,3.893,10.271C414.974,239.937,414.974,240.022,414.974,240.107Z" transform="translate(-45.067 -75.83)" fill="url(#linear-gradient)"/>
  <path id="Trazado_1686" data-name="Trazado 1686" d="M1042.444,115.873v66.217c-1.351,1.37-2.705,2.737-4.044,4.113V114.18Z" transform="translate(-705.093 -102.131)" fill="#3f3d56"/>
  <path id="Trazado_1687" data-name="Trazado 1687" d="M443.075,209.163a.163.163,0,0,1,0,.041H100.885a28.075,28.075,0,0,1-.178-4.044H442.961a21.893,21.893,0,0,1,.114,4Z" transform="translate(-83.219 -164.527)" fill="#3f3d56"/>
  <circle id="Elipse_1112" data-name="Elipse 1112" cx="1.178" cy="1.178" r="1.178" transform="translate(79.228 21.383)" fill="#e7effd"/>
  <circle id="Elipse_1113" data-name="Elipse 1113" cx="1.178" cy="1.178" r="1.178" transform="translate(36.92 19.024)" fill="#e7effd"/>
  <circle id="Elipse_1114" data-name="Elipse 1114" cx="0.506" cy="0.506" r="0.506" transform="translate(94.045 22.056)" fill="#e7effd"/>
  <circle id="Elipse_1115" data-name="Elipse 1115" cx="0.506" cy="0.506" r="0.506" transform="translate(50.732 20.877)" fill="#e7effd"/>
  <circle id="Elipse_1116" data-name="Elipse 1116" cx="0.506" cy="0.506" r="0.506" transform="translate(50.229 56.207)" fill="#e7effd"/>
  <circle id="Elipse_1117" data-name="Elipse 1117" cx="0.506" cy="0.506" r="0.506" transform="translate(304.751 29.508)" fill="#e7effd"/>
  <circle id="Elipse_1118" data-name="Elipse 1118" cx="0.506" cy="0.506" r="0.506" transform="translate(119.066 29.973)" fill="#e7effd"/>
  <circle id="Elipse_1119" data-name="Elipse 1119" cx="0.506" cy="0.506" r="0.506" transform="translate(274.384 28.961)" fill="#e7effd"/>
  <circle id="Elipse_1120" data-name="Elipse 1120" cx="0.506" cy="0.506" r="0.506" transform="translate(343.496 30.479)" fill="#e7effd"/>
  <path id="Trazado_1688" data-name="Trazado 1688" d="M454.019,440.928v.559c-.171,5.838-3.611,11.659-9.923,15.756-6.647,4.311-15.56,6.579-24.711,8.027-1.431.226-2.869.43-4.3.628-.732.094-1.461.188-2.186.276-5.015.628-10.057,1.109-15.115,1.511-6.787.54-13.607.914-20.435,1.191-8.766.361-17.549.566-26.322.77-17.148.4-34.31.792-51.488,1.065l-6.095.094-7.436.094-4.3.047c-27.081.27-54.122.132-81.117-.9q-2.695-.1-5.38-.22-6.018-.248-12.036-.575c-8.041-.427-16.145-.968-24.162-1.769q-3.19-.314-6.352-.694-2.156-.248-4.3-.544-2.387-.314-4.754-.685a164.224,164.224,0,0,1-33.417-8.364q-4.19-1.578-8.188-3.56v-55.3c1.484-1.618,2.959-3.236,4.376-4.873,1.705-1.967,3.343-3.993,4.848-6.073h32.364V368.65h57v41.2h92.848V377.177H400.562a34.4,34.4,0,0,0-2.805,5.231v.176h-.124a21.393,21.393,0,0,0-1.561,6.064,15.031,15.031,0,0,0,1.672,8.671v.132l.03.063c3.1,5.781,9.669,9.878,17.272,13.51,1.4.672,2.842,1.326,4.3,1.973,8.161,3.619,16.954,6.987,23.681,11.436l.2.132a35.553,35.553,0,0,1,4.952,3.89c.05.044.094.088.137.132a24.822,24.822,0,0,1,1.792,1.938,16.415,16.415,0,0,1,3.905,10.139C454.019,440.758,454.019,440.843,454.019,440.928Z" transform="translate(-84.113 -276.651)" fill="#ee8933"/>
  <path id="Trazado_1689" data-name="Trazado 1689" d="M454.019,440.928v.559c-.171,5.838-3.611,11.659-9.923,15.756-6.647,4.311-15.56,6.579-24.711,8.027-1.431.226-2.869.43-4.3.628-.732.094-1.461.188-2.186.276-5.015.628-10.057,1.109-15.115,1.511-6.787.54-13.607.914-20.435,1.191-8.766.361-17.549.566-26.322.77-17.148.4-34.31.792-51.488,1.065l-6.095.094-7.436.094-4.3.047c-27.081.27-54.122.132-81.117-.9q-2.695-.1-5.38-.22-6.018-.248-12.036-.575c-8.041-.427-16.145-.968-24.162-1.769q-3.19-.314-6.352-.694-2.156-.248-4.3-.544-2.387-.314-4.754-.685a164.224,164.224,0,0,1-33.417-8.364q-4.19-1.578-8.188-3.56v-55.3c1.484-1.618,2.959-3.236,4.376-4.873,1.705-1.967,3.343-3.993,4.848-6.073h32.364V368.65h57v41.2h92.848V377.177H400.562a34.4,34.4,0,0,0-2.805,5.231v.176h-.124a21.393,21.393,0,0,0-1.561,6.064,15.031,15.031,0,0,0,1.672,8.671v.132l.03.063c3.1,5.781,9.669,9.878,17.272,13.51,1.4.672,2.842,1.326,4.3,1.973,8.161,3.619,16.954,6.987,23.681,11.436l.2.132a35.553,35.553,0,0,1,4.952,3.89c.05.044.094.088.137.132a24.822,24.822,0,0,1,1.792,1.938,16.415,16.415,0,0,1,3.905,10.139C454.019,440.758,454.019,440.843,454.019,440.928Z" transform="translate(-84.113 -276.651)" opacity="0.3"/>
  <rect id="Rectángulo_3389" data-name="Rectángulo 3389" width="8.986" height="6.064" transform="translate(27.878 118.381)" opacity="0.4"/>
  <rect id="Rectángulo_3390" data-name="Rectángulo 3390" width="8.986" height="6.064" transform="translate(42.255 118.381)" opacity="0.4"/>
  <rect id="Rectángulo_3391" data-name="Rectángulo 3391" width="8.986" height="6.064" transform="translate(220.287 105.917)" opacity="0.4"/>
  <rect id="Rectángulo_3392" data-name="Rectángulo 3392" width="8.986" height="6.064" transform="translate(246.061 105.917)" opacity="0.4"/>
  <rect id="Rectángulo_3393" data-name="Rectángulo 3393" width="8.986" height="6.064" transform="translate(273.74 105.917)" opacity="0.4"/>
  <rect id="Rectángulo_3394" data-name="Rectángulo 3394" width="8.986" height="6.064" transform="translate(220.287 124.448)" opacity="0.4"/>
  <rect id="Rectángulo_3395" data-name="Rectángulo 3395" width="8.986" height="6.064" transform="translate(246.061 124.448)" opacity="0.4"/>
  <rect id="Rectángulo_3396" data-name="Rectángulo 3396" width="8.986" height="6.064" transform="translate(273.74 124.448)" fill="#ee8933"/>
  <rect id="Rectángulo_3397" data-name="Rectángulo 3397" width="8.986" height="6.064" transform="translate(220.287 142.975)" opacity="0.4"/>
  <rect id="Rectángulo_3398" data-name="Rectángulo 3398" width="8.986" height="6.064" transform="translate(246.061 142.975)" opacity="0.4"/>
  <rect id="Rectángulo_3399" data-name="Rectángulo 3399" width="8.986" height="6.064" transform="translate(273.74 142.975)" opacity="0.4"/>
  <rect id="Rectángulo_3400" data-name="Rectángulo 3400" width="8.986" height="6.064" transform="translate(220.287 161.506)" opacity="0.4"/>
  <rect id="Rectángulo_3401" data-name="Rectángulo 3401" width="8.986" height="6.064" transform="translate(246.061 161.506)" opacity="0.4"/>
  <rect id="Rectángulo_3402" data-name="Rectángulo 3402" width="8.986" height="6.064" transform="translate(273.74 161.506)" opacity="0.4"/>
  <rect id="Rectángulo_3403" data-name="Rectángulo 3403" width="8.986" height="6.064" transform="translate(220.287 180.036)" opacity="0.4"/>
  <rect id="Rectángulo_3404" data-name="Rectángulo 3404" width="8.986" height="6.064" transform="translate(246.061 180.036)" opacity="0.4"/>
  <rect id="Rectángulo_3405" data-name="Rectángulo 3405" width="8.986" height="6.064" transform="translate(273.74 180.036)" opacity="0.4"/>
  <path id="Trazado_1690" data-name="Trazado 1690" d="M972.317,413a22.507,22.507,0,0,0-1.467,6.064h-4.93V413Z" transform="translate(-655.385 -307.067)" opacity="0.4"/>
  <rect id="Rectángulo_3406" data-name="Rectángulo 3406" width="8.986" height="6.064" transform="translate(310.535 124.448)" fill="#ee8933"/>
  <rect id="Rectángulo_3407" data-name="Rectángulo 3407" width="8.986" height="6.064" transform="translate(310.535 142.975)" opacity="0.4"/>
  <rect id="Rectángulo_3408" data-name="Rectángulo 3408" width="8.986" height="6.064" transform="translate(310.535 161.506)" opacity="0.4"/>
  <rect id="Rectángulo_3409" data-name="Rectángulo 3409" width="8.986" height="6.064" transform="translate(310.535 180.036)" opacity="0.4"/>
  <rect id="Rectángulo_3410" data-name="Rectángulo 3410" width="8.986" height="6.064" transform="translate(82.598 98.842)" opacity="0.4"/>
  <rect id="Rectángulo_3411" data-name="Rectángulo 3411" width="8.986" height="6.064" transform="translate(82.598 112.437)" fill="#ee8933"/>
  <rect id="Rectángulo_3412" data-name="Rectángulo 3412" width="8.986" height="6.064" transform="translate(82.598 126.028)" opacity="0.4"/>
  <rect id="Rectángulo_3413" data-name="Rectángulo 3413" width="8.986" height="6.064" transform="translate(82.598 139.623)" opacity="0.4"/>
  <rect id="Rectángulo_3414" data-name="Rectángulo 3414" width="8.986" height="6.064" transform="translate(82.598 153.214)" opacity="0.4"/>
  <rect id="Rectángulo_3415" data-name="Rectángulo 3415" width="8.986" height="6.064" transform="translate(82.598 166.809)" opacity="0.4"/>
  <rect id="Rectángulo_3416" data-name="Rectángulo 3416" width="8.986" height="6.064" transform="translate(82.598 180.4)" opacity="0.4"/>
  <rect id="Rectángulo_3417" data-name="Rectángulo 3417" width="8.986" height="6.064" transform="translate(27.878 134.228)" opacity="0.4"/>
  <rect id="Rectángulo_3418" data-name="Rectángulo 3418" width="8.986" height="6.064" transform="translate(42.255 134.228)" opacity="0.4"/>
  <rect id="Rectángulo_3419" data-name="Rectángulo 3419" width="8.986" height="6.064" transform="translate(27.878 150.076)" opacity="0.4"/>
  <rect id="Rectángulo_3420" data-name="Rectángulo 3420" width="8.986" height="6.064" transform="translate(42.255 150.076)" opacity="0.4"/>
  <rect id="Rectángulo_3421" data-name="Rectángulo 3421" width="8.986" height="6.064" transform="translate(27.878 165.923)" opacity="0.4"/>
  <rect id="Rectángulo_3422" data-name="Rectángulo 3422" width="8.986" height="6.064" transform="translate(42.255 165.923)" opacity="0.4"/>
  <rect id="Rectángulo_3423" data-name="Rectángulo 3423" width="44.922" height="5.42" transform="translate(137.478 140.267)" opacity="0.4"/>
  <rect id="Rectángulo_3424" data-name="Rectángulo 3424" width="44.922" height="5.42" transform="translate(137.478 157.559)" opacity="0.4"/>
  <rect id="Rectángulo_3425" data-name="Rectángulo 3425" width="44.922" height="5.42" transform="translate(137.478 174.855)" opacity="0.4"/>
  <path id="Trazado_1691" data-name="Trazado 1691" d="M244.64,76.109V265.875q-2.026-.248-4.04-.544V75.92C241.948,75.945,243.293,76.014,244.64,76.109Z" transform="translate(-179.167 -75.892)" fill="#3f3d56"/>
  <path id="Trazado_1692" data-name="Trazado 1692" d="M643.54,174.073V336.98l-4.04.047V173.58Q641.517,173.853,643.54,174.073Z" transform="translate(-441.241 -142.869)" fill="#3f3d56"/>
  <path id="Trazado_1693" data-name="Trazado 1693" d="M409.838,550.174H45.39a24.171,24.171,0,0,1,.744-4.044H404.787a34.861,34.861,0,0,1,5.051,4.044Z" transform="translate(-45.289 -398.37)" fill="#3f3d56"/>
  <path id="Trazado_1694" data-name="Trazado 1694" d="M1038.4,503.06c1.317.672,2.671,1.326,4.044,1.973v52.286c-1.345.226-2.7.43-4.044.628Z" transform="translate(-705.093 -368.832)" fill="#3f3d56"/>
  <path id="Trazado_1695" data-name="Trazado 1695" d="M333.654,228.123h-.773v-.773h-.138v.773h-.773v.138h.773v.773h.138v-.773h.773Z" transform="translate(-221.279 -155.921)" fill="#e7effd"/>
  <path id="Trazado_1696" data-name="Trazado 1696" d="M844.934,176.993h-.773v-.773h-.141v.773h-.77v.138h.77v.773h.141v-.773h.773Z" transform="translate(-562.1 -120.855)" fill="#e7effd"/>
  <path id="Trazado_1697" data-name="Trazado 1697" d="M391.924,167.043h-.773v-.773h-.141v.773h-.77v.141h.77v.77h.141v-.77h.773Z" transform="translate(-260.122 -114.031)" fill="#e7effd"/>
  <circle id="Elipse_1121" data-name="Elipse 1121" cx="0.506" cy="0.506" r="0.506" transform="translate(130.104 101.905)" fill="#e7effd"/>
  <circle id="Elipse_1122" data-name="Elipse 1122" cx="0.506" cy="0.506" r="0.506" transform="translate(252.503 56.713)" fill="#e7effd"/>
  <circle id="Elipse_1123" data-name="Elipse 1123" cx="0.506" cy="0.506" r="0.506" transform="translate(310.029 80.67)" fill="#e7effd"/>
  <circle id="Elipse_1124" data-name="Elipse 1124" cx="0.506" cy="0.506" r="0.506" transform="translate(221.971 85.008)" fill="#e7effd"/>
  <path id="Trazado_1698" data-name="Trazado 1698" d="M497.167,347.59s-10.78,2.608-15.046,7.487a14.517,14.517,0,0,1-5.74,3.645V351.36c2.466-4.141,4.952-8.747,4.952-8.747.113-.226,1.012-3.4,1.012-3.4,2.023-1.59-.113-7.145-.113-7.145s1.238-3.516.562-4.2-.113-2.495.449-3.289a4.1,4.1,0,0,0,.449-2.495c0-.679-.9-1.7-2.36-2.268s.113-1.474,1.012-1.7,1.125-2.382.113-3.516.113-1.813.672-3.06-1.806-1.021-1.806-1.021V299.049h0s-.676-3.742-1.348-10.321-3.258-7.258-3.258-7.258a29.591,29.591,0,0,1-4.043-1.59,27.7,27.7,0,0,0-4.267-1.587,21.962,21.962,0,0,1-5.5-.76,16.818,16.818,0,0,0-3.754-.814l-.405-.2a14.713,14.713,0,0,1-6.815-7.226c-.069-.157-.132-.314-.195-.465a15.86,15.86,0,0,0,1.794-2.382v1.313h0v.028c1.791-3.164,6.987-3.886,7.481-7.5a3.767,3.767,0,0,0,.035-.5v-.386c-.066-1.008-.412-2.014-.478-3.032a5.817,5.817,0,0,1,0-.877v.019c.232-2.806,2.347-5.247,3.315-7.971a9.556,9.556,0,0,0,.506-2.268v-.022c.025-.232.041-.468.047-.7v-.663a10.613,10.613,0,0,0-3.5-7.666c-1.791-1.555-4.157-2.532-5.4-4.565-.578-.943-.861-2.061-1.492-2.972-1.188-1.722-3.368-2.422-5.432-2.671s-4.185-.167-6.158-.814c-1.4-.459-2.671-1.272-4.084-1.681a7.814,7.814,0,0,0-8.392,3.026,14.789,14.789,0,0,1-2.237,3.236c-2.058,1.741-5.548.987-7.352,2.991a5.333,5.333,0,0,0-.983,4.138v.057a3.476,3.476,0,0,0,.035.355v.167a.519.519,0,0,0,.022.179c.063.55.141,1.1.211,1.624a2.106,2.106,0,0,0,.028.242l.057.493a3.442,3.442,0,0,0,.031.358c.013.119.022.314.031.446a3.109,3.109,0,0,0,.022.352,24.243,24.243,0,0,1-2.576,12.1c-1.7,3.333-4.226,6.406-4.666,10.129a10.911,10.911,0,0,0-.05,1.838v.217c0,.072.019.22.028.33s.025.254.041.38a1.708,1.708,0,0,0,.028.217c.022.166.047.333.075.5l.019.107c.446,2.539,1.458,5.027,2,7.591a20.536,20.536,0,0,1,.4,2.868.041.041,0,0,0,0,.019c.019.314.035.613.044.921v1.257a19.949,19.949,0,0,1-2.617.8c-1.571.226-6.18,4.311-5.844,5.341s-2.061,8.169-2.127,8.386h0l-3.77,26.077s-2,1.929-1.376,3.176-.123,3.4-.123,3.4-3.381,1.474-2.63,2.382.408,2.608-.107,3.742-1.36,3.176,0,3.516.233,4.766.233,4.766,4.741-.547,4.4,2.268c-.113.9,3.315,3.359,4.744,4.345v13.554a41.417,41.417,0,0,1-5.614-1.907c-2.919-1.36-19.316-3.968-22.91,3.858s4.942,18.26,7.075,19.394a14.563,14.563,0,0,1,2.473,2.382c.449.795,3.032,1.021,3.032,1.021a19.712,19.712,0,0,1,3.368,1.926c.5.5,4.6,1.807,9.469,2.828h0s-3.93,9.048,2.482,8.3,9.535-3.9,14.057-3.9c1.807,0,5.162-.254,8.54-.556a22.687,22.687,0,0,1,2.513.594,32.307,32.307,0,0,0,5.838,1.257s5.055,2.721,7.751,2.039a1.713,1.713,0,0,0,.61-.314h.063a3.535,3.535,0,0,0,1.624-1.392c3.371.346,7.226.836,8.659,1.395,2.793,1.078,22.772-.415,22.772-.415s12.907.254,16.6,1.373,2.385-11.421-4.439-12.831a28,28,0,0,0-5.533-.547,12.414,12.414,0,0,0,1.291-1.571c2.457-.223,4.084-.361,4.084-.361s6.513-3.176,10.22-5.105a23.321,23.321,0,0,0,6.284-4.989s3.255-2.042,4.6-2.828,2.02-3.4,2.02-3.4C523.109,344.524,497.167,347.59,497.167,347.59Zm-29.244-29.024v-1.144c.364.258.311.663,0,1.14Zm.107,8.021c.273.358.537.685.726.943.726.943-.588,1.382-.493,2.944.022.349.053.836.085,1.376h0c-.138-2.253-.251-4.106-.317-5.266Z" transform="translate(-261.888 -176.935)" fill="url(#linear-gradient-2)"/>
  <path id="Trazado_1699" data-name="Trazado 1699" d="M409.615,656.625a66.615,66.615,0,0,1-9.209-2.809c-2.925-1.348-19.316-3.931-22.91,3.82s4.942,18.078,7.075,19.2,22.91-14.267,22.91-14.267l16.388,6.912,3.142-10.726Z" transform="translate(-265.044 -471.182)" fill="#65617d"/>
  <rect id="Rectángulo_3426" data-name="Rectángulo 3426" width="71.341" height="24.817" rx="12.409" transform="translate(155.119 187.576)" fill="#65617d"/>
  <path id="Trazado_1700" data-name="Trazado 1700" d="M575.041,685.267a12.382,12.382,0,0,1-2.067,6.862,12.57,12.57,0,0,1-1.571,1.917,12.369,12.369,0,0,1-8.775,3.635H516.11a12.41,12.41,0,0,1,0-24.82h46.521A12.41,12.41,0,0,1,575.041,685.267Z" transform="translate(-348.581 -485.284)" opacity="0.1"/>
  <path id="Trazado_1701" data-name="Trazado 1701" d="M503.832,714.66a59.337,59.337,0,0,1-12.991,1.756C485,716.335,457.7,727.68,457.7,727.68s-3.93,8.96,2.482,8.219,9.535-3.852,14.057-3.852,18.744-1.571,18.744-1.571l13.686-10.11Z" transform="translate(-318.05 -513.951)" fill="#fbbebe"/>
  <path id="Trazado_1702" data-name="Trazado 1702" d="M547.85,375.56l-12.831,2.529-.833.167s-10.145-2.7-10.481-2.922S514.16,362.7,514.16,362.7a18.577,18.577,0,0,0,8.313-2.058c.132-.075.261-.157.39-.236a8.106,8.106,0,0,0,3.456-4.238c.066-.185.122-.377.176-.578a11.4,11.4,0,0,0-.107-5.523c-1.257-5.237,1.634-6.68,5.464-6.554,5.533.182,13.064,3.635,13.064,3.635a15.352,15.352,0,0,0,1.184,5.121c.06.151.126.314.195.459a14.622,14.622,0,0,0,6.815,7.148l.405.2c.408.195.839.38,1.285.547C564.583,364.332,547.85,375.56,547.85,375.56Z" transform="translate(-356.525 -259.407)" fill="#fbbebe"/>
  <path id="Trazado_1703" data-name="Trazado 1703" d="M572.389,352.732a16.184,16.184,0,0,1-19.976,3.44,10.884,10.884,0,0,0,.069-6.1c-3.032-12.8,18.537-2.919,18.537-2.919A15.56,15.56,0,0,0,572.389,352.732Z" transform="translate(-382.569 -259.411)" opacity="0.1"/>
  <path id="Trazado_1704" data-name="Trazado 1704" d="M558.765,301.34a16.06,16.06,0,0,1-2.451,8.555,15.828,15.828,0,0,1-1.794,2.359,16.08,16.08,0,0,1-10.952,5.215c-.314.022-.65.031-.977.031a16.171,16.171,0,1,1,16.171-16.171Z" transform="translate(-365.043 -219.392)" fill="#fbbebe"/>
  <path id="Trazado_1705" data-name="Trazado 1705" d="M547.85,411.356l-12.831,2.529-.833.167s-10.145-2.7-10.481-2.922S514.16,398.5,514.16,398.5a18.578,18.578,0,0,0,8.313-2.058c.132-.075.261-.157.39-.236a15.062,15.062,0,0,0,10.946,4.785,15.817,15.817,0,0,0,2.294-.167c1.8-.277,3.623-.456,5.438-.628,3.478-.364,8.8-1.42,11.59-4.493l.405.2c.409.195.839.38,1.285.547C564.583,400.127,547.85,411.356,547.85,411.356Z" transform="translate(-356.525 -295.203)" opacity="0.1"/>
  <path id="Trazado_1706" data-name="Trazado 1706" d="M529.239,444.531c.11,2.473,1.91,30.322,1.91,30.322H475.109l.38-17.535.314-14.025.1-4.6.449-15.945-1.624-1.433-8.829-7.779h0c.066-.207,2.46-7.3,2.127-8.3s4.27-5.052,5.844-5.278a20.451,20.451,0,0,0,2.633-.8c2.649-.942,6.183-2.3,6.573-2.086.55.3,6.061-.217,6.284-.239h0a15.031,15.031,0,0,0,11.329,5.225,15.406,15.406,0,0,0,2.284-.182c1.8-.277,3.622-.456,5.439-.644,3.654-.38,9.334-1.527,12-4.964a17.008,17.008,0,0,1,3.755.8,22.288,22.288,0,0,0,5.5.754,27.934,27.934,0,0,1,4.267,1.571,29.835,29.835,0,0,0,4.043,1.571s2.583.672,3.258,7.185,1.357,10.22,1.357,10.22l-13.353,11.565S529.129,442.049,529.239,444.531Z" transform="translate(-323.367 -295.586)" fill="#ee8933"/>
  <path id="Trazado_1707" data-name="Trazado 1707" d="M416.39,515.075l1.964,3.145,7.355,2.592,5.055-9.218-4.659-3.145-7.468-2.919L414.37,508Z" transform="translate(-275.854 -346.701)" fill="#fbbebe"/>
  <path id="Trazado_1708" data-name="Trazado 1708" d="M663.522,632.336s10.443-.785,14.713-5.614,15.046-7.412,15.046-7.412,25.942-3.032,15.709,19.878c0,0-.672,2.583-2.02,3.368s-4.6,2.809-4.6,2.809l-39.848-3.481Z" transform="translate(-454.798 -448.467)" fill="#65617d"/>
  <path id="Trazado_1709" data-name="Trazado 1709" d="M639.617,692.153a12.382,12.382,0,0,1-2.067,6.862c-6.7.594-21.553,1.989-24.66,2.856-3.817,1.059-11.543-.785-12.388-.993l-.079-.019s-1.489-4.518-2.2-7.408c-.314-1.313-.481-2.29-.273-2.363.675-.223,6.852-1.91,6.739-.943s18.537-7.245,18.537-7.245l.572,7.188C625.692,692.256,639.617,689.033,639.617,692.153Z" transform="translate(-412.174 -492.169)" opacity="0.1"/>
  <path id="Trazado_1710" data-name="Trazado 1710" d="M660.3,686.872l-.785,2.922a23.281,23.281,0,0,1-6.284,4.939c-3.707,1.91-10.22,5.055-10.22,5.055s-23.919,2.02-27.962,3.142-12.467-1.012-12.467-1.012-3.142-9.545-2.469-9.771,6.849-1.907,6.739-.943,18.537-7.245,18.537-7.245Z" transform="translate(-412.835 -492.896)" fill="#65617d"/>
  <path id="Trazado_1711" data-name="Trazado 1711" d="M579.92,749.7s11.757.82,14.553,1.885,22.772-.408,22.772-.408,12.907.251,16.6,1.357,2.385-11.311-4.439-12.7-16.441.657-16.441.657-10.852-1.4-12.168-1.571-9.985.078-9.985.078Z" transform="translate(-399.698 -530.545)" fill="#fbbebe"/>
  <path id="Trazado_1712" data-name="Trazado 1712" d="M432.87,674.72s15.539,1.4,19.812,3.946Z" transform="translate(-303.168 -486.559)" opacity="0.1"/>
  <path id="Trazado_1713" data-name="Trazado 1713" d="M704.4,642.28s-12.168,2.96-16.938,7.314Z" transform="translate(-472.722 -464.311)" opacity="0.1"/>
  <path id="Trazado_1714" data-name="Trazado 1714" d="M435.75,663.47c.248.082,7.154.987,6.987,1.643S435.75,663.47,435.75,663.47Z" transform="translate(-305.382 -478.844)" opacity="0.1"/>
  <path id="Trazado_1715" data-name="Trazado 1715" d="M401.21,703.419l.9,3.371a14.552,14.552,0,0,1,2.47,2.356c.449.785,3.032,1.012,3.032,1.012a19.221,19.221,0,0,1,3.371,1.907c.676.672,7.971,2.809,14.823,3.707s19.539,2.583,22.235,3.481a32.356,32.356,0,0,0,5.841,1.235s5.052,2.7,7.748,2.023,7.3-12.916,7.3-12.916-17.742-4.153-18.3-5.5-17.632-7.635-17.632-7.635l-10.107.239Z" transform="translate(-280.866 -501.469)" opacity="0.1"/>
  <path id="Trazado_1716" data-name="Trazado 1716" d="M399.06,691.973l.9,3.371a14.542,14.542,0,0,1,2.473,2.356c.449.785,3.032,1.012,3.032,1.012a18.966,18.966,0,0,1,3.368,1.91c.672.676,7.974,2.806,14.823,3.7s19.542,2.583,22.238,3.481a32.454,32.454,0,0,0,5.837,1.232s5.055,2.693,7.751,2.02,7.3-12.916,7.3-12.916-17.745-4.153-18.3-5.5-25.606-11.565-25.606-11.565l-7.855-1.8Z" transform="translate(-279.442 -489.687)" fill="#65617d"/>
  <path id="Trazado_1717" data-name="Trazado 1717" d="M448.782,447.67l-1.964,1.125-3.77,25.829s-2,1.91-1.376,3.142-.123,3.368-.123,3.368-3.381,1.461-2.63,2.36.408,2.583-.107,3.7-1.36,3.142,0,3.481.232,4.713.232,4.713,4.741-.54,4.4,2.243c-.141,1.125,5.36,4.713,5.36,4.713s-6.252-11.342,7.754-9.771l1.2-6.394s1.2-3.6,0-4.713.27-6.456.27-6.456l.264-23.19Z" transform="translate(-306.624 -330.844)" fill="#ee8933"/>
  <path id="Trazado_1718" data-name="Trazado 1718" d="M462.44,553.84c.248.412,7.811,1.257,8.3,2.6S462.44,553.84,462.44,553.84Z" transform="translate(-323.134 -403.658)" opacity="0.1"/>
  <path id="Trazado_1719" data-name="Trazado 1719" d="M454.85,568.352s1.027-3.208,3.456-2.633S454.85,568.352,454.85,568.352Z" transform="translate(-318.177 -411.758)" opacity="0.1"/>
  <path id="Trazado_1720" data-name="Trazado 1720" d="M450.67,580.507s1.807-4.276,4.273-3.946S450.67,580.507,450.67,580.507Z" transform="translate(-315.373 -419.227)" opacity="0.1"/>
  <path id="Trazado_1721" data-name="Trazado 1721" d="M664.752,577.331l-.789,4.713s-8.084,14.826-9.545,15.049-9.425-9.881-9.425-9.881l-2.133-9.884,8.4-1.593,3.729-3.685S664.413,572.952,664.752,577.331Z" transform="translate(-442.849 -416.146)" fill="#fbbebe"/>
  <path id="Trazado_1722" data-name="Trazado 1722" d="M674.413,455.556l3.032,2.133v11.342s2.36-.226,1.8,1.012-1.684,1.907-.672,3.032.785,3.255-.113,3.481-2.47,1.122-1.012,1.684,2.36,1.571,2.36,2.246a4.021,4.021,0,0,1-.449,2.469c-.562.785-1.122,2.583-.449,3.258s-.562,4.154-.562,4.154,2.136,5.5.113,7.075c0,0-.9,3.142-1.012,3.368,0,0,1.417-10.93-12.712-6.309,0,0-.261-4.166-.358-5.709s1.219-2,.493-2.916-2.542-3.035-1.684-3.594.562-1.571.223-2.36-1.524-.785-.449-1.741,1.712-1.851,1.081-2.3-1.728-1.913-.855-2.586.9-10.443.9-10.443S667.677,448.48,674.413,455.556Z" transform="translate(-456.103 -334.909)" fill="#ee8933"/>
  <path id="Trazado_1723" data-name="Trazado 1723" d="M695.84,520.193s4.317-1.172,4.458,0S695.84,520.193,695.84,520.193Z" transform="translate(-478.775 -380.225)" opacity="0.1"/>
  <path id="Trazado_1724" data-name="Trazado 1724" d="M680.4,529.925s5.919-1.48,6.658-.33S680.4,529.925,680.4,529.925Z" transform="translate(-468.404 -386.73)" opacity="0.1"/>
  <path id="Trazado_1725" data-name="Trazado 1725" d="M676.21,540.642s8.879-1.235,9.454.575S676.21,540.642,676.21,540.642Z" transform="translate(-465.512 -394.324)" opacity="0.1"/>
  <path id="Trazado_1726" data-name="Trazado 1726" d="M680.4,553.84c.33.082,8.549.657,8.712,2.218S680.4,553.84,680.4,553.84Z" transform="translate(-468.331 -403.658)" opacity="0.1"/>
  <rect id="Rectángulo_3427" data-name="Rectángulo 3427" width="70.402" height="39.986" rx="10.47" transform="translate(143.754 155.244)" fill="#3f3d56"/>
  <circle id="Elipse_1125" data-name="Elipse 1125" cx="2.595" cy="2.595" r="2.595" transform="translate(176.441 172.643)" fill="#e7effd"/>
  <path id="Trazado_1727" data-name="Trazado 1727" d="M507.72,491.94s6.749,5.159,11.967,1.228C519.687,493.168,510.865,493.97,507.72,491.94Z" transform="translate(-353.203 -361.206)" opacity="0.1"/>
  <path id="Trazado_1728" data-name="Trazado 1728" d="M616.48,496.36s6.745,5.156,11.964,1.225C628.444,497.585,619.625,498.39,616.48,496.36Z" transform="translate(-425.639 -364.237)" opacity="0.1"/>
  <path id="Trazado_1729" data-name="Trazado 1729" d="M527.4,301.4a16.063,16.063,0,0,1-2.451,8.555,24.64,24.64,0,0,0-3.645-12.768c-2.243-3.456-9.064-9.485-13.752-7.8a3.321,3.321,0,0,0-2.048,2.2c-.465,1.766.9,2.513,1.769,3.905a11.973,11.973,0,0,1,1.634,8.068,11.212,11.212,0,0,1-.236,1.118c-.738,2.771-2.429,5.941-.685,8.213,1.216,1.571,3.83,2.13,4.185,4.084a2.38,2.38,0,0,1,.031.559c-.082,1.323-1.21,2.488-1.7,3.786a6.226,6.226,0,0,0,.349,4.587c.779,2,2.023,4.031,2.325,6.149a12.035,12.035,0,0,1-1.115,6.073,27.112,27.112,0,0,0-1.854,5.718c-.544,3.733.826,8.049-1.524,11a1.646,1.646,0,0,1-1.027.694c-1.5.157-1.257-2.548-2.46-3.456a10.621,10.621,0,0,1-.314,4.681,3.6,3.6,0,0,1-3.613,2.473l-.537-3.528a10.188,10.188,0,0,1-3.739,2.341,27.254,27.254,0,0,1,3.9-10.556c-3.956,1.9-6.262,6.026-8.32,9.9-1.282,2.422-2.611,5.068-2.162,7.773.182,1.1.657,2.152.76,3.261a2.709,2.709,0,0,1-1.332,2.828,2.408,2.408,0,0,1-2.6-.807l-.113-.135c-.063-.082-.123-.167-.179-.251a4.23,4.23,0,0,1-.3-.534,10.333,10.333,0,0,1-.628-2.064l-.069-.314c-1.046-4.59-1.989-9.325-1.222-13.969a26.057,26.057,0,0,0,.735-5.14,9.426,9.426,0,0,0-.591-2.859c-.917-2.57-2.683-4.93-3.689-7.518a.222.222,0,0,1-.025-.057c-.528-1.37-.789-3.082.189-4.182a8.254,8.254,0,0,1,1.885-1.257c1.954-1.272,2.828-3.689,3.189-5.995a20.385,20.385,0,0,0,.245-3.142c2.648-.943,6.183-2.3,6.573-2.086.55.3,6.06-.217,6.284-.239a8.255,8.255,0,0,0,3.858-4.474c.066-.185.123-.377.176-.578a16.171,16.171,0,1,1,23.85-14.236Z" transform="translate(-334.203 -219.453)" opacity="0.1"/>
  <path id="Trazado_1730" data-name="Trazado 1730" d="M508.667,264.581c-.741,2.771-2.429,5.941-.682,8.216,1.216,1.571,3.83,2.127,4.179,4.084.28,1.571-1.106,2.865-1.665,4.342-1.332,3.528,2.143,7,2.671,10.732.575,4.053-2.378,7.745-2.966,11.794-.544,3.733.826,8.046-1.524,11a1.627,1.627,0,0,1-1.027.694c-1.5.16-1.257-2.545-2.46-3.456a10.621,10.621,0,0,1-.314,4.681,3.6,3.6,0,0,1-3.613,2.473l-.537-3.531a10.176,10.176,0,0,1-3.739,2.341,27.272,27.272,0,0,1,3.9-10.553c-3.956,1.9-6.259,6.026-8.316,9.9-1.285,2.422-2.611,5.071-2.165,7.776.182,1.1.657,2.149.76,3.261a2.709,2.709,0,0,1-1.332,2.828,2.454,2.454,0,0,1-2.718-.943,7.085,7.085,0,0,1-1.109-2.853c-1.074-4.688-2.077-9.526-1.294-14.27a26.134,26.134,0,0,0,.735-5.14c-.135-3.792-2.934-6.912-4.3-10.44-.531-1.373-.789-3.082.189-4.182a8.252,8.252,0,0,1,1.885-1.257c1.951-1.276,2.828-3.688,3.186-5.995a20.774,20.774,0,0,0-.21-7.5c-.789-3.692-2.6-7.3-2.149-11.047.44-3.688,2.966-6.73,4.666-10.032a23.734,23.734,0,0,0,2.407-13.871c-.292-2.215-.8-4.779.7-6.434,1.8-1.986,5.294-1.238,7.352-2.96a14.666,14.666,0,0,0,2.237-3.2,7.855,7.855,0,0,1,8.392-3c1.414.405,2.683,1.21,4.084,1.665,1.973.628,4.084.559,6.158.807s4.245.943,5.432,2.642c.628.9.914,2.008,1.492,2.944,1.241,2.011,3.607,2.978,5.4,4.521a10.475,10.475,0,0,1,2.947,11.188c-1.068,2.975-3.541,5.608-3.33,8.763.085,1.3.628,2.57.459,3.855-.5,3.579-5.69,4.292-7.484,7.427.145-5.14-.842-10.434-3.648-14.741-2.243-3.456-9.064-9.488-13.752-7.807a3.333,3.333,0,0,0-2.048,2.2c-.465,1.763.9,2.513,1.769,3.905A11.876,11.876,0,0,1,508.667,264.581Z" transform="translate(-333.923 -180.031)" fill="#3f3d56"/>
  <g id="Grupo_1513" data-name="Grupo 1513" transform="translate(146.766 59.886)" opacity="0.2">
    <path id="Trazado_1731" data-name="Trazado 1731" d="M493.838,370.669a20.6,20.6,0,0,0-.449-4.807c-.669-3.142-2.07-6.218-2.2-9.372-.182,3.513,1.461,6.912,2.2,10.368A20.627,20.627,0,0,1,493.838,370.669Z" transform="translate(-487.887 -328.198)"/>
    <path id="Trazado_1732" data-name="Trazado 1732" d="M521.067,479.54c.273-.5.556-1,.861-1.48-3.952,1.9-6.258,6.026-8.316,9.9-1.191,2.24-2.413,4.678-2.231,7.173a16.212,16.212,0,0,1,2.231-6.164C515.515,485.387,517.633,481.6,521.067,479.54Z" transform="translate(-501.732 -411.573)"/>
    <path id="Trazado_1733" data-name="Trazado 1733" d="M499.34,521.2a2.385,2.385,0,0,1-1.313,1.97,2.453,2.453,0,0,1-2.715-.943,7.117,7.117,0,0,1-1.112-2.853,51.3,51.3,0,0,1-1.571-10.2,46.373,46.373,0,0,0,1.571,11.207,7.072,7.072,0,0,0,1.112,2.853,2.455,2.455,0,0,0,2.715.943,2.711,2.711,0,0,0,1.335-2.828A.382.382,0,0,1,499.34,521.2Z" transform="translate(-488.881 -432.915)"/>
    <path id="Trazado_1734" data-name="Trazado 1734" d="M566.968,334.2a11.4,11.4,0,0,1-.364,2.388c-.547,2.052-1.615,4.326-1.423,6.284a34.038,34.038,0,0,1,1.423-5.281A11.347,11.347,0,0,0,566.968,334.2Z" transform="translate(-538.626 -312.911)"/>
    <path id="Trazado_1735" data-name="Trazado 1735" d="M513.368,272.736a23.566,23.566,0,0,0-.195-3.585c-.116-.873-.264-1.8-.314-2.711a19.6,19.6,0,0,0,.314,3.723,23.5,23.5,0,0,1,.195,2.573Z" transform="translate(-502.748 -266.44)"/>
    <path id="Trazado_1736" data-name="Trazado 1736" d="M576.6,384.019a.109.109,0,0,0-.022-.079c-.239,1.169-1.2,2.237-1.643,3.412a4.787,4.787,0,0,0-.276,2.2,4.52,4.52,0,0,1,.276-1.188C575.491,386.884,576.877,385.577,576.6,384.019Z" transform="translate(-545.122 -347.024)"/>
    <path id="Trazado_1737" data-name="Trazado 1737" d="M485.469,453.288c-.138-3.792-2.934-6.912-4.3-10.44a7.154,7.154,0,0,1-.44-1.728,5.836,5.836,0,0,0,.44,2.74c1.345,3.481,4.066,6.544,4.285,10.252C485.469,453.838,485.479,453.562,485.469,453.288Z" transform="translate(-480.709 -386.239)"/>
    <path id="Trazado_1738" data-name="Trazado 1738" d="M575.3,300.325c-2.246-3.456-9.064-9.488-13.752-7.807a3.336,3.336,0,0,0-2.052,2.2,2.378,2.378,0,0,0-.035,1.181.651.651,0,0,1,.035-.17,3.33,3.33,0,0,1,2.052-2.2c4.688-1.681,11.505,4.361,13.752,7.807a24.957,24.957,0,0,1,3.654,13.284A25.526,25.526,0,0,0,575.3,300.325Z" transform="translate(-534.68 -284.126)"/>
    <path id="Trazado_1739" data-name="Trazado 1739" d="M629.1,341.14c-.493,3.569-5.655,4.289-7.468,7.405v1.031c1.791-3.142,6.987-3.849,7.481-7.427a4.262,4.262,0,0,0,0-1.059A.261.261,0,0,1,629.1,341.14Z" transform="translate(-577.355 -317.636)"/>
    <path id="Trazado_1740" data-name="Trazado 1740" d="M647.243,294.894c-1.068,2.978-3.541,5.608-3.33,8.766v.138c.232-2.781,2.347-5.193,3.315-7.892a9.889,9.889,0,0,0,.55-3.846A9.6,9.6,0,0,1,647.243,294.894Z" transform="translate(-592.628 -284.011)"/>
    <path id="Trazado_1741" data-name="Trazado 1741" d="M562.188,490.558a1.634,1.634,0,0,1-1.028.7c-1.5.16-1.257-2.545-2.46-3.456.031.358.06.72.079,1.081,1.118.968.911,3.541,2.381,3.384a1.618,1.618,0,0,0,1.028-.694c1.341-1.684,1.47-3.811,1.436-6.02A7.915,7.915,0,0,1,562.188,490.558Z" transform="translate(-534.197 -416.709)"/>
    <path id="Trazado_1742" data-name="Trazado 1742" d="M540.462,502.844a3.6,3.6,0,0,1-3.616,2.473q-.267-1.763-.534-3.531a10.249,10.249,0,0,1-3.553,2.272c-.069.358-.135.719-.189,1.081a10.186,10.186,0,0,0,3.742-2.341q.267,1.769.534,3.531a3.6,3.6,0,0,0,3.616-2.473,8.049,8.049,0,0,0,.412-3.2A6.793,6.793,0,0,1,540.462,502.844Z" transform="translate(-516.276 -427.072)"/>
    <path id="Trazado_1743" data-name="Trazado 1743" d="M574.334,444.194a17.966,17.966,0,0,0-.135,2.862,14.318,14.318,0,0,1,.135-1.85c.562-3.861,3.268-7.4,3.022-11.226C577.14,437.442,574.846,440.675,574.334,444.194Z" transform="translate(-544.82 -381.342)"/>
  </g>
  <path id="Trazado_1744" data-name="Trazado 1744" d="M871.552,637s-2.133,9.938,7.361,11.116l.588-1.1S872.149,640.1,871.552,637Z" transform="translate(-595.568 -460.69)" fill="#ee8933"/>
  <path id="Trazado_1745" data-name="Trazado 1745" d="M888.963,636.043l-2.2.468-.22.047s-5.891-4.782-5.815-15.458a26.714,26.714,0,0,0,2.812,4.452C885.868,628.64,888.523,632.766,888.963,636.043Z" transform="translate(-601.814 -449.786)" fill="#ee8933"/>
  <path id="Trazado_1746" data-name="Trazado 1746" d="M897.862,629.049a1.392,1.392,0,0,1-1.188.154c-5.655-1.326-3.755-19.794-3.755-19.794.314.148.657,2.513,1.961,5.53C897.167,620.278,899.681,627.711,897.862,629.049Z" transform="translate(-609.846 -441.768)" fill="#ee8933"/>
  <path id="Trazado_1747" data-name="Trazado 1747" d="M928.134,637s.368,9.938-9.127,11.116l-.588-1.1S927.547,640.1,928.134,637Z" transform="translate(-626.851 -460.69)" fill="#ee8933"/>
  <path id="Trazado_1748" data-name="Trazado 1748" d="M918.844,621.1a18.382,18.382,0,0,1-7.584,15.458l-.22-.047-2.2-.468c.437-3.277,3.1-7.4,5.429-10.491A23.874,23.874,0,0,1,918.844,621.1Z" transform="translate(-620.455 -449.786)" fill="#ee8933"/>
  <path id="Trazado_1749" data-name="Trazado 1749" d="M908.023,628.1a3.513,3.513,0,0,1-1.257.968h0a2.413,2.413,0,0,1-.462.154c-1.4.314-1.885-.679-1.8-2.388.132-3.045,2.045-8.323,3.77-12.253a15.271,15.271,0,0,1,3.56-5.143C911.812,609.424,911.727,623.811,908.023,628.1Z" transform="translate(-617.691 -441.789)" fill="#ee8933"/>
  <path id="Trazado_1750" data-name="Trazado 1750" d="M903.935,588.77s-6.331,22.452-.883,25.838S905.333,590.759,903.935,588.77Z" transform="translate(-615.357 -427.613)" fill="#ee8933"/>
  <path id="Trazado_1751" data-name="Trazado 1751" d="M871.552,637s-2.133,9.938,7.361,11.116l.588-1.1S872.149,640.1,871.552,637Z" transform="translate(-595.568 -460.69)" opacity="0.1"/>
  <path id="Trazado_1752" data-name="Trazado 1752" d="M888.963,636.043l-2.2.468-.22.047s-5.891-4.782-5.815-15.458a26.714,26.714,0,0,0,2.812,4.452C885.868,628.64,888.523,632.766,888.963,636.043Z" transform="translate(-601.814 -449.786)" opacity="0.1"/>
  <path id="Trazado_1753" data-name="Trazado 1753" d="M897.862,629.049a1.392,1.392,0,0,1-1.188.154c-5.655-1.326-3.755-19.794-3.755-19.794.314.148.657,2.513,1.961,5.53C897.167,620.278,899.681,627.711,897.862,629.049Z" transform="translate(-609.846 -441.768)" opacity="0.1"/>
  <path id="Trazado_1754" data-name="Trazado 1754" d="M928.134,637s.368,9.938-9.127,11.116l-.588-1.1S927.547,640.1,928.134,637Z" transform="translate(-626.851 -460.69)" opacity="0.1"/>
  <path id="Trazado_1755" data-name="Trazado 1755" d="M918.844,621.1a18.382,18.382,0,0,1-7.584,15.458l-.22-.047-2.2-.468c.437-3.277,3.1-7.4,5.429-10.491A23.874,23.874,0,0,1,918.844,621.1Z" transform="translate(-620.455 -449.786)" opacity="0.1"/>
  <path id="Trazado_1756" data-name="Trazado 1756" d="M908.023,628.1a3.513,3.513,0,0,1-1.257.968h0a2.413,2.413,0,0,1-.462.154c-1.4.314-1.885-.679-1.8-2.388.132-3.045,2.045-8.323,3.77-12.253a15.271,15.271,0,0,1,3.56-5.143C911.812,609.424,911.727,623.811,908.023,628.1Z" transform="translate(-617.691 -441.789)" opacity="0.1"/>
  <path id="Trazado_1757" data-name="Trazado 1757" d="M903.935,588.77s-6.331,22.452-.883,25.838S905.333,590.759,903.935,588.77Z" transform="translate(-615.357 -427.613)" opacity="0.1"/>
  <path id="Trazado_1758" data-name="Trazado 1758" d="M871.88,637s-1.257,9.938,8.244,11.116l.588-1.1S872.477,640.1,871.88,637Z" transform="translate(-595.851 -460.69)" fill="#ee8933"/>
  <path id="Trazado_1759" data-name="Trazado 1759" d="M889.839,636.043l-2.2.468-.223.047s-6.774-4.782-6.7-15.458c0,0,1.734,1.86,3.695,4.452C886.745,628.64,889.4,632.766,889.839,636.043Z" transform="translate(-601.764 -449.786)" fill="#ee8933"/>
  <path id="Trazado_1760" data-name="Trazado 1760" d="M897.906,645.76l-2.2.468c-2.1-1.838-2.925-6.636-3.227-10.959C894.811,638.358,897.466,642.484,897.906,645.76Z" transform="translate(-609.779 -459.504)" opacity="0.1"/>
  <path id="Trazado_1761" data-name="Trazado 1761" d="M899.254,629.049a1.392,1.392,0,0,1-1.188.154c-5.671-1.326-4.637-19.794-4.637-19.794.314.148,1.539,2.513,2.828,5.53C898.56,620.278,901.073,627.711,899.254,629.049Z" transform="translate(-610.31 -441.768)" fill="#ee8933"/>
  <path id="Trazado_1762" data-name="Trazado 1762" d="M930.062,637s1.257,9.938-8.244,11.116l-.588-1.1S929.474,640.1,930.062,637Z" transform="translate(-628.765 -460.69)" fill="#ee8933"/>
  <path id="Trazado_1763" data-name="Trazado 1763" d="M920.771,621.1c.069,10.682-6.7,15.458-6.7,15.458l-.22-.047-2.2-.468c.44-3.277,3.1-7.4,5.429-10.491C919.033,622.954,920.771,621.1,920.771,621.1Z" transform="translate(-622.371 -449.786)" fill="#ee8933"/>
  <path id="Trazado_1764" data-name="Trazado 1764" d="M917.07,635.27c-.283,4.034-1.021,8.483-2.812,10.547a3.612,3.612,0,0,1-.408.412l-2.2-.468C912.074,642.484,914.738,638.358,917.07,635.27Z" transform="translate(-622.555 -459.504)" opacity="0.1"/>
  <path id="Trazado_1765" data-name="Trazado 1765" d="M910.826,628.1a3.513,3.513,0,0,1-1.257.968h0a2.441,2.441,0,0,1-.465.154c-1.395.314-1.885-.679-1.8-2.388.135-3.045,2.045-8.323,3.77-12.253,1.238-2.846,2.375-5,2.677-5.143C913.733,609.424,914.531,623.811,910.826,628.1Z" transform="translate(-619.597 -441.789)" fill="#ee8933"/>
  <path id="Trazado_1766" data-name="Trazado 1766" d="M904.891,641.12a1.57,1.57,0,0,1-.9-.286c-2.667-1.662-2.721-7.9-2.086-13.824C904.2,632.348,906.71,639.782,904.891,641.12Z" transform="translate(-615.912 -453.839)" opacity="0.1"/>
  <path id="Trazado_1767" data-name="Trazado 1767" d="M910.845,639.329c-.314.663-.72,1.015-1.257.968h0a1.8,1.8,0,0,1-.76-.286,4.047,4.047,0,0,1-1.508-1.948c.135-3.044,2.045-8.323,3.77-12.253C911.687,631.274,911.891,637.083,910.845,639.329Z" transform="translate(-619.725 -453.016)" opacity="0.1"/>
  <path id="Trazado_1768" data-name="Trazado 1768" d="M905.4,588.77s-5.448,22.452,0,25.838S906.8,590.759,905.4,588.77Z" transform="translate(-616.79 -427.613)" fill="#ee8933"/>
  <path id="Trazado_1769" data-name="Trazado 1769" d="M849.361,591.66H826.69v3.754h3.459l.085.443,1.386,7.286H844.8l1.385-7.286.085-.443h3.092Z" transform="translate(-550.039 -405.771)" fill="#d4dfec"/>
  <path id="Trazado_1770" data-name="Trazado 1770" d="M849.331,591.66H826.66v3.754h3.459l.085.443,1.386,7.286h13.18l1.386-7.286.085-.443h3.091Z" transform="translate(-550.019 -405.771)" opacity="0.1"/>
  <path id="Trazado_1771" data-name="Trazado 1771" d="M856.281,598.69l-.38,1.989-1.386,7.286h-13.18l-1.385-7.286-.38-1.989Z" transform="translate(-558.917 -410.592)" fill="#d4dfec"/>
  <path id="Trazado_1772" data-name="Trazado 1772" d="M856.281,598.69l-.38,1.989H839.95l-.38-1.989Z" transform="translate(-558.917 -410.592)" opacity="0.1"/>
  <rect id="Rectángulo_3428" data-name="Rectángulo 3428" width="22.671" height="3.754" transform="translate(277.591 185.889)" fill="#d4dfec"/>
  <path id="Trazado_1773" data-name="Trazado 1773" d="M284.848,585.5a5.794,5.794,0,0,0-.767,1.445c-.047.126-.094.27-.141.408a1.119,1.119,0,0,0-.267-.091,3.714,3.714,0,0,0-1.2-.1c0-.157.016-.314.022-.493.05-1.778-.16-4.251-1.854-3.2-1.624,1.012-.465,2.689.584,3.77.091.094.179.179.267.264-.943.688-1.137,2.268-1.3,3.924s-1.571,3.456-2.495,4.493c-.091.1-.179.2-.264.286a3.387,3.387,0,0,0-2.708-.7l-.126-.459c-.754-2.724-2.322-7.443-4.32-8.483l.264-.333c.848-1.112,1.8-2.762.393-3.183s-1.539,1.43-1.461,2.828a4.737,4.737,0,0,0,.041.493,2.083,2.083,0,0,0-1.48.719c-.066-.082-.138-.166-.217-.258-1.144-1.354-3.246-3.494-3.88-1.885-.591,1.508,1.257,3.456,2.557,4.606l.082.069c-.873,3.544,2.934,6.428,4.989,7.691.091.06.179.113.264.163-2.828,3.333-4.578,9.586-4.578,9.586l7.936,1.442s5.256-4.534,4.584-8.8h.053c5.25-1.053,6.444-6.651,5.627-9.975l.091-.038a5.969,5.969,0,0,0,2.432-1.838C289.439,585.818,286.356,583.509,284.848,585.5Z" transform="translate(-190.599 -423.647)" fill="#ee8933"/>
  <path id="Trazado_1774" data-name="Trazado 1774" d="M284.848,585.5a5.794,5.794,0,0,0-.767,1.445c-.047.126-.094.27-.141.408a1.119,1.119,0,0,0-.267-.091,3.714,3.714,0,0,0-1.2-.1c0-.157.016-.314.022-.493.05-1.778-.16-4.251-1.854-3.2-1.624,1.012-.465,2.689.584,3.77.091.094.179.179.267.264-.943.688-1.137,2.268-1.3,3.924s-1.571,3.456-2.495,4.493c-.091.1-.179.2-.264.286a3.387,3.387,0,0,0-2.708-.7l-.126-.459c-.754-2.724-2.322-7.443-4.32-8.483l.264-.333c.848-1.112,1.8-2.762.393-3.183s-1.539,1.43-1.461,2.828a4.737,4.737,0,0,0,.041.493,2.083,2.083,0,0,0-1.48.719c-.066-.082-.138-.166-.217-.258-1.144-1.354-3.246-3.494-3.88-1.885-.591,1.508,1.257,3.456,2.557,4.606l.082.069c-.873,3.544,2.934,6.428,4.989,7.691.091.06.179.113.264.163-2.828,3.333-4.578,9.586-4.578,9.586l7.936,1.442s5.256-4.534,4.584-8.8h.053c5.25-1.053,6.444-6.651,5.627-9.975l.091-.038a5.969,5.969,0,0,0,2.432-1.838C289.439,585.818,286.356,583.509,284.848,585.5Z" transform="translate(-190.599 -423.647)" opacity="0.1"/>
  <path id="Trazado_1775" data-name="Trazado 1775" d="M270.137,590.844l-.927,2.715s-.515-.365-1.166-.943c-1.3-1.137-3.142-3.1-2.557-4.606.628-1.621,2.737.518,3.883,1.885C269.829,590.436,270.137,590.844,270.137,590.844Z" transform="translate(-191.888 -426.693)" fill="#ee8933"/>
  <path id="Trazado_1776" data-name="Trazado 1776" d="M284.383,586.288a13.42,13.42,0,0,1-.9,1.062,13.907,13.907,0,0,1-.167-1.426c-.075-1.389.069-3.233,1.461-2.828S285.232,585.176,284.383,586.288Z" transform="translate(-203.867 -423.683)" fill="#ee8933"/>
  <path id="Trazado_1777" data-name="Trazado 1777" d="M318.986,587.208c-.031.892-.116,1.605-.116,1.605a11.787,11.787,0,0,1-1.156-1.034c-1.049-1.087-2.2-2.765-.581-3.77C318.826,582.957,319.033,585.43,318.986,587.208Z" transform="translate(-225.876 -424.176)" fill="#ee8933"/>
  <path id="Trazado_1778" data-name="Trazado 1778" d="M332.739,591.682a5.969,5.969,0,0,1-2.432,1.838,6.584,6.584,0,0,1-.817.3l-1.09-1.533a10.991,10.991,0,0,1,.452-1.489,5.7,5.7,0,0,1,.767-1.445C331.127,587.343,334.206,589.652,332.739,591.682Z" transform="translate(-233.89 -427.481)" fill="#ee8933"/>
  <path id="Trazado_1779" data-name="Trazado 1779" d="M275.2,595.26c.459.54.767.943.767.943l-.927,2.715a14.959,14.959,0,0,1-1.166-.943,5.317,5.317,0,0,1,1.043-2.385Q275.054,595.42,275.2,595.26Z" transform="translate(-197.583 -432.064)" opacity="0.1"/>
  <path id="Trazado_1780" data-name="Trazado 1780" d="M284.418,592.584a13.4,13.4,0,0,1-.9,1.062,13.887,13.887,0,0,1-.166-1.426A1.841,1.841,0,0,1,284.418,592.584Z" transform="translate(-203.916 -429.979)" opacity="0.1"/>
  <path id="Trazado_1781" data-name="Trazado 1781" d="M282.367,604.412l-2.3,1.015a13.8,13.8,0,0,1-1.228-.694c-2.422-1.489-7.292-5.237-4.028-9.658s5.988,3.506,7.06,7.383C282.195,603.618,282.367,604.412,282.367,604.412Z" transform="translate(-197.396 -431.043)" fill="#ee8933"/>
  <path id="Trazado_1782" data-name="Trazado 1782" d="M320.74,595.312a1.885,1.885,0,0,1,1.272-.572c-.031.892-.116,1.605-.116,1.605a11.8,11.8,0,0,1-1.156-1.034Z" transform="translate(-228.838 -431.708)" opacity="0.1"/>
  <path id="Trazado_1783" data-name="Trazado 1783" d="M330.307,598.357a6.594,6.594,0,0,1-.817.3l-1.09-1.533a10.991,10.991,0,0,1,.452-1.489A3.929,3.929,0,0,1,330.307,598.357Z" transform="translate(-233.935 -432.318)" opacity="0.1"/>
  <path id="Trazado_1784" data-name="Trazado 1784" d="M306.147,608.795c-.126.025-.258.05-.386.069-7.726,1.175-2.548-2.994-2.548-2.994s.349-.314.82-.842c.943-1.031,2.334-2.828,2.495-4.493.242-2.513.522-4.854,3.478-4.163C312.905,597.051,313.458,607.331,306.147,608.795Z" transform="translate(-215.888 -432.743)" fill="#ee8933"/>
  <rect id="Rectángulo_3429" data-name="Rectángulo 3429" width="14.76" height="3.88" transform="translate(74.77 195.286)" fill="#d4dfec"/>
  <rect id="Rectángulo_3430" data-name="Rectángulo 3430" width="19.285" height="13.544" transform="translate(72.333 182.672)" fill="#d4dfec"/>
  <rect id="Rectángulo_3431" data-name="Rectángulo 3431" width="14.76" height="3.88" transform="translate(74.77 195.286)" opacity="0.1"/>
  <rect id="Rectángulo_3432" data-name="Rectángulo 3432" width="19.285" height="13.544" transform="translate(72.333 182.672)" opacity="0.1"/>
  <rect id="Rectángulo_3433" data-name="Rectángulo 3433" width="14.76" height="3.88" transform="translate(75.799 195.286)" fill="#d4dfec"/>
  <path id="Trazado_1785" data-name="Trazado 1785" d="M293.042,621.42c.314,1.159.5,1.954.5,1.954l-2.3,1.015a13.834,13.834,0,0,1-1.228-.694A5.881,5.881,0,0,1,293.042,621.42Z" transform="translate(-208.322 -450.005)" opacity="0.1"/>
  <path id="Trazado_1786" data-name="Trazado 1786" d="M306.147,627.957c-.126.025-.258.05-.386.069-7.726,1.175-2.548-2.994-2.548-2.994s.349-.314.82-.842A5.118,5.118,0,0,1,306.147,627.957Z" transform="translate(-215.974 -451.905)" opacity="0.1"/>
  <path id="Trazado_1787" data-name="Trazado 1787" d="M276.29,634.312s4.326-15.483,10.39-10.714-2.466,12.131-2.466,12.131Z" transform="translate(-199.058 -450.874)" fill="#ee8933"/>
  <circle id="Elipse_1126" data-name="Elipse 1126" cx="0.484" cy="0.484" r="0.484" transform="translate(78.883 165.976)" opacity="0.1"/>
  <circle id="Elipse_1127" data-name="Elipse 1127" cx="0.484" cy="0.484" r="0.484" transform="translate(78.839 168.238)" opacity="0.1"/>
  <circle id="Elipse_1128" data-name="Elipse 1128" cx="0.484" cy="0.484" r="0.484" transform="translate(93.767 166.419)" opacity="0.1"/>
  <circle id="Elipse_1129" data-name="Elipse 1129" cx="0.484" cy="0.484" r="0.484" transform="translate(81.756 178.022)" opacity="0.1"/>
  <circle id="Elipse_1130" data-name="Elipse 1130" cx="0.484" cy="0.484" r="0.484" transform="translate(92.697 170.18)" opacity="0.1"/>
  <circle id="Elipse_1131" data-name="Elipse 1131" cx="0.484" cy="0.484" r="0.484" transform="translate(87.377 175.194)" opacity="0.1"/>
  <circle id="Elipse_1132" data-name="Elipse 1132" cx="0.484" cy="0.484" r="0.484" transform="translate(80.643 166.944)" opacity="0.1"/>
  <circle id="Elipse_1133" data-name="Elipse 1133" cx="0.484" cy="0.484" r="0.484" transform="translate(92.354 167.874)" opacity="0.1"/>
  <circle id="Elipse_1134" data-name="Elipse 1134" cx="0.484" cy="0.484" r="0.484" transform="translate(90.594 171.635)" opacity="0.1"/>
  <circle id="Elipse_1135" data-name="Elipse 1135" cx="0.484" cy="0.484" r="0.484" transform="translate(85.19 177.661)" opacity="0.1"/>
  <circle id="Elipse_1136" data-name="Elipse 1136" cx="0.484" cy="0.484" r="0.484" transform="translate(84.073 175.273)" opacity="0.1"/>
  <circle id="Elipse_1137" data-name="Elipse 1137" cx="0.484" cy="0.484" r="0.484" transform="translate(81.413 169.897)" opacity="0.1"/>
  <rect id="Rectángulo_3434" data-name="Rectángulo 3434" width="14.76" height="1.417" transform="translate(75.799 195.286)" opacity="0.1"/>
  <rect id="Rectángulo_3435" data-name="Rectángulo 3435" width="19.285" height="13.544" transform="translate(73.366 182.672)" fill="#d4dfec"/>
  <circle id="Elipse_1138" data-name="Elipse 1138" cx="0.484" cy="0.484" r="0.484" transform="translate(85.877 179.844)" opacity="0.1"/>
  <circle id="Elipse_1139" data-name="Elipse 1139" cx="0.484" cy="0.484" r="0.484" transform="translate(82.786 180.451)" opacity="0.1"/>
</svg>
