<?xml version="1.0" encoding="utf-8"?>
<!-- Generator: Adobe Illustrator 26.3.1, SVG Export Plug-In . SVG Version: 6.00 Build 0)  -->
<svg version="1.1" id="Capa_1" xmlns="http://www.w3.org/2000/svg" xmlns:xlink="http://www.w3.org/1999/xlink" x="0px" y="0px"
	 viewBox="0 0 512 512" style="enable-background:new 0 0 512 512;" xml:space="preserve">
<style type="text/css">
	.st0{fill:#122B26;}
</style>
<g>
	<path class="st0" d="M512,166.9V107c0-5-2.5-9.7-6.7-12.5s-9.5-3.3-14.2-1.3l-210,90c-5.5,2.4-9.1,7.8-9.1,13.8v206.9
		c-12.9-7.7-28.6-11.9-45-11.9c-19.3,0-37.5,5.7-51.4,16.2c-15,11.2-23.6,27.2-23.6,43.8s8.6,32.6,23.6,43.8
		c13.9,10.4,32.2,16.2,51.4,16.2s37.5-5.7,51.4-16.2c15-11.2,23.6-27.2,23.6-43.8V266.9l180-77.1v124.1c-12.9-7.7-28.6-11.9-45-11.9
		c-19.3,0-37.5,5.7-51.4,16.2c-15,11.2-23.6,27.2-23.6,43.8s8.6,32.6,23.6,43.8c13.9,10.4,32.2,16.2,51.4,16.2s37.5-5.7,51.4-16.2
		c15-11.2,23.6-27.2,23.6-43.8C512,362,512,166.9,512,166.9z M227,482c-24.4,0-45-13.7-45-30s20.6-30,45-30s45,13.7,45,30
		S251.4,482,227,482z M302,234.3v-27.4l180-77.1v27.4L302,234.3z M437,392c-24.4,0-45-13.7-45-30s20.6-30,45-30s45,13.7,45,30
		S461.4,392,437,392z"/>
	<path class="st0" d="M210,165c0,19.4-18.5,42.2-25.6,49.4c-5.9,5.9-5.9,15.4,0,21.2c5.9,5.9,15.4,5.9,21.2,0
		c3.5-3.5,34.4-35.4,34.4-70.6c0-28.2-16.1-64-48-106.5C169.1,28,146.6,5.4,145.6,4.4C136.2-5,120,1.6,120,15v206.9
		c-12.9-7.7-28.6-11.9-45-11.9c-19.3,0-37.5,5.7-51.4,16.2C8.6,237.4,0,253.4,0,270s8.6,32.6,23.6,43.8C37.5,324.3,55.7,330,75,330
		s37.5-5.7,51.4-16.2c15-11.2,23.6-27.2,23.6-43.8V53.8C177.1,86,210,132.8,210,165L210,165z M75,300c-24.4,0-45-13.7-45-30
		s20.6-30,45-30s45,13.7,45,30S99.4,300,75,300z"/>
</g>
</svg>
