<?xml version="1.0" encoding="utf-8"?>
<!-- Generator: Adobe Illustrator 26.3.1, SVG Export Plug-In . SVG Version: 6.00 Build 0)  -->
<svg version="1.1" id="Capa_1" xmlns="http://www.w3.org/2000/svg" xmlns:xlink="http://www.w3.org/1999/xlink" x="0px" y="0px"
	 viewBox="0 0 512 512" style="enable-background:new 0 0 512 512;" xml:space="preserve">
<style type="text/css">
	.st0{fill:#3ED6C0;}
</style>
<g>
	<path class="st0" d="M245.4,323.6c5.9,5.9,15.4,5.9,21.2,0l94.5-94.5c28.2-28.2,28.2-74,0-102.2c-13.7-13.7-31.8-21.2-51.1-21.2
		s-37.5,7.5-51.1,21.2l-2.9,2.9l-2.9-2.9c-28.2-28.2-74-28.2-102.2,0c-28.2,28.2-28.2,74,0,102.2L245.4,323.6z M202,135.7
		c11.3,0,21.9,4.4,29.9,12.4l13.5,13.5c5.9,5.9,15.4,5.9,21.2,0l13.5-13.5c8-8,18.6-12.4,29.9-12.4c37.4,0,56.5,45.5,29.9,72.2
		L256,291.7l-83.9-83.9C145.8,181.5,164.2,135.7,202,135.7L202,135.7z"/>
	<path class="st0" d="M91.3,387.6h82l70.8,92.5c6,7.8,17.8,7.8,23.8,0l70.8-92.5h82c50.3,0,91.3-40.9,91.3-91.3V117.3
		C512,67,471.1,26,420.7,26H91.3C40.9,26,0,67,0,117.3v179.1C0,346.7,40.9,387.6,91.3,387.6L91.3,387.6z M30,117.3
		C30,83.5,57.5,56,91.3,56h329.5c33.8,0,61.3,27.5,61.3,61.3v179.1c0,33.8-27.5,61.3-61.3,61.3h-89.4c-4.7,0-9.1,2.2-11.9,5.9
		L256,446.3l-63.4-82.8c-2.8-3.7-7.2-5.9-11.9-5.9H91.3c-33.8,0-61.3-27.5-61.3-61.3L30,117.3z"/>
</g>
</svg>
