<?xml version="1.0" encoding="utf-8"?>
<!-- Generator: Adobe Illustrator 26.3.1, SVG Export Plug-In . SVG Version: 6.00 Build 0)  -->
<svg version="1.1" id="Layer_1" xmlns="http://www.w3.org/2000/svg" xmlns:xlink="http://www.w3.org/1999/xlink" x="0px" y="0px"
	 viewBox="0 0 512 512" style="enable-background:new 0 0 512 512;" xml:space="preserve">
<style type="text/css">
	.st0{fill:#3ED6C0;}
</style>
<path class="st0" d="M32,424c0-8.8,7.2-16,16-16h64c8.8,0,16,7.2,16,16v72h16v-72c0-17.7-14.3-32-32-32h-8.2
	c17.8-13.1,21.6-38.2,8.4-55.9c-13.1-17.8-38.2-21.6-55.9-8.4s-21.6,38.2-8.4,55.9c2.4,3.2,5.2,6.1,8.4,8.4H48
	c-17.7,0-32,14.3-32,32v72h16L32,424z M56,360c0-13.3,10.7-24,24-24s24,10.7,24,24s-10.7,24-24,24S56,373.3,56,360z"/>
<path class="st0" d="M40,424h16v72H40V424z"/>
<path class="st0" d="M104,424h16v72h-16V424z"/>
<path class="st0" d="M320,496v-72c0-17.7-14.3-32-32-32h-8.2c17.8-13.1,21.6-38.2,8.4-55.9c-13.1-17.8-38.2-21.6-55.9-8.4
	s-21.6,38.2-8.4,55.9c2.4,3.2,5.2,6.1,8.4,8.4H224c-17.7,0-32,14.3-32,32v72h16v-72c0-8.8,7.2-16,16-16h64c8.8,0,16,7.2,16,16v72
	H320z M256,384c-13.3,0-24-10.7-24-24s10.7-24,24-24c13.3,0,24,10.7,24,24S269.3,384,256,384z"/>
<path class="st0" d="M216,424h16v72h-16V424z"/>
<path class="st0" d="M280,424h16v72h-16V424z"/>
<path class="st0" d="M464,392h-8.2c17.8-13.1,21.6-38.2,8.4-55.9c-13.1-17.8-38.2-21.6-55.9-8.4s-21.6,38.2-8.4,55.9
	c2.4,3.2,5.2,6.1,8.4,8.4H400c-17.7,0-32,14.3-32,32v72h16v-72c0-8.8,7.2-16,16-16h64c8.8,0,16,7.2,16,16v72h16v-72
	C496,406.3,481.7,392,464,392L464,392z M432,384c-13.3,0-24-10.7-24-24s10.7-24,24-24s24,10.7,24,24S445.3,384,432,384z"/>
<path class="st0" d="M392,424h16v72h-16V424z"/>
<path class="st0" d="M456,424h16v72h-16V424z"/>
<path class="st0" d="M168,168c0,2.8,1.5,5.4,3.9,6.9l80,48c2.5,1.5,5.7,1.5,8.2,0l80-48c2.4-1.4,3.9-4,3.9-6.9V72
	c0-2.8-1.5-5.4-3.9-6.9l-80-48c-2.5-1.5-5.7-1.5-8.2,0l-80,48c-2.4,1.4-3.9,4-3.9,6.9L168,168z M328,163.5l-64,38.4v-71.2l64-43.5
	V163.5z M256,33.3l65.2,39.1L256,116.7l-65.2-44.3L256,33.3z M184,87.1l64,43.5v71.2l-64-38.4V87.1z"/>
<path class="st0" d="M392,180c-0.5-14.9-7.2-28.9-18.5-38.7l-11.1,11.5c8.1,6.8,13,16.6,13.5,27.2c0,32.5-55,60-120,60
	s-120-27.5-120-60c0.5-10.6,5.4-20.4,13.5-27.2l-11.1-11.5c-11.3,9.8-17.9,23.8-18.5,38.7c0,42.6,59.7,76,136,76S392,222.6,392,180z
	"/>
<path class="st0" d="M248,272h16v32h-16V272z"/>
<path class="st0" d="M73.6,291.2l48-64l12.8,9.6l-48,64L73.6,291.2z"/>
<path class="st0" d="M377.6,236.8l12.8-9.6l48,64l-12.8,9.6L377.6,236.8z"/>
</svg>
