<?xml version="1.0" encoding="utf-8"?>
<!-- Generator: Adobe Illustrator 26.3.1, SVG Export Plug-In . SVG Version: 6.00 Build 0)  -->
<svg version="1.1" id="Capa_1" xmlns="http://www.w3.org/2000/svg" xmlns:xlink="http://www.w3.org/1999/xlink" x="0px" y="0px"
	 viewBox="0 0 512 512" style="enable-background:new 0 0 512 512;" xml:space="preserve">
<style type="text/css">
	.st0{fill:#122B26;}
</style>
<g>
	<path class="st0" d="M482,213.6V151c0-66.2-54.3-120-121-120c-45.1,0-84.5,25-105,62c-20.5-37-59.9-62-105-62
		C84.3,31,30,84.8,30,151v62.6C12.5,219.8,0,236.4,0,256v120c0,8.3,6.7,15,15,15h75v60H45c-8.3,0-15,6.7-15,15s6.7,15,15,15h422
		c8.3,0,15-6.7,15-15s-6.7-15-15-15h-45v-60h75c8.3,0,15-6.7,15-15V256C512,236.4,499.5,219.8,482,213.6z M361,61
		c50.2,0,91,40.4,91,90v62.6c-17.5,6.2-30,22.9-30,42.4v45H301v-45c0-19.6-12.5-36.2-30-42.4V151C271,101.4,311.4,61,361,61z
		 M301,361v-30h121v30H301z M90,361v-30h121v30H90z M256,241c8.3,0,15,6.7,15,15v105h-30V256C241,247.7,247.7,241,256,241z M301,391
		v60h-90v-60H301z M151,61c49.6,0,90,40.4,90,90v62.6c-17.5,6.2-30,22.9-30,42.4v45H90v-45c0-19.6-12.5-36.2-30-42.4V151
		C60,101.4,100.8,61,151,61z M30,256c0-8.3,6.7-15,15-15s15,6.7,15,15v105H30V256z M120,391h61v60h-61V391z M392,451h-61v-60h61V451
		z M482,361h-30V256c0-8.3,6.7-15,15-15s15,6.7,15,15V361z"/>
</g>
</svg>
