<?xml version="1.0" encoding="utf-8"?>
<!-- Generator: Adobe Illustrator 26.2.1, SVG Export Plug-In . SVG Version: 6.00 Build 0)  -->
<svg version="1.1" id="Capa_1" xmlns="http://www.w3.org/2000/svg" xmlns:xlink="http://www.w3.org/1999/xlink" x="0px" y="0px"
	 viewBox="0 0 512 512" style="enable-background:new 0 0 512 512;" xml:space="preserve">
<style type="text/css">
	.st0{fill:#122B26;}
</style>
<g>
	<path class="st0" d="M256,512c141,0,256-115,256-256S397,0,256,0S0,115,0,256S115,512,256,512z M331.9,468.9
		c14.5-18.5,25.6-40.6,34-62.9h59C399.9,434.1,368,455.9,331.9,468.9z M447.4,376h-71.8c8.9-32.2,14-67.9,15.1-105h90.7
		C479,309.4,466.8,345.2,447.4,376L447.4,376z M447.4,136c19.4,30.8,31.5,66.6,34.1,105h-90.7c-1.1-37.1-6.3-72.8-15.1-105H447.4z
		 M424.9,106h-59c-8.3-22.2-19.5-44.3-34-62.9C368,56.1,399.9,77.9,424.9,106z M271,32.6c29.4,10,50.6,45,62.6,73.4H271V32.6z
		 M271,136h73.4c9.5,31.6,15.1,67.4,16.3,105H271V136z M271,271h89.8c-1.2,37.6-6.8,73.4-16.3,105H271V271z M271,406h62.6
		c-12.1,28.5-33.2,63.5-62.6,73.4V406z M87.1,406h59c8.3,22.2,19.5,44.3,34,62.9C144,455.9,112.1,434.1,87.1,406z M241,479.4
		c-29.4-10-50.5-44.9-62.6-73.4H241V479.4z M241,376h-73.4c-9.5-31.6-15.1-67.4-16.3-105H241V376z M241,241h-89.8
		c1.2-37.6,6.8-73.4,16.3-105H241V241z M241,32.6V106h-62.6C190.5,77.5,211.6,42.5,241,32.6z M180.1,43.1
		c-14.5,18.5-25.6,40.6-34,62.9h-59C112.1,77.9,144,56.1,180.1,43.1z M64.6,136h71.8c-8.9,32.2-14,67.9-15.1,105H30.5
		C33,202.6,45.2,166.8,64.6,136z M30.5,271h90.7c1.1,37.1,6.3,72.8,15.1,105H64.6C45.2,345.2,33,309.4,30.5,271z"/>
</g>
</svg>
