<?xml version="1.0" encoding="utf-8"?>
<!-- Generator: Adobe Illustrator 26.2.1, SVG Export Plug-In . SVG Version: 6.00 Build 0)  -->
<svg version="1.1" id="Layer_1" xmlns="http://www.w3.org/2000/svg" xmlns:xlink="http://www.w3.org/1999/xlink" x="0px" y="0px"
	 viewBox="0 0 512 512" style="enable-background:new 0 0 512 512;" xml:space="preserve">
<path d="M341.2,245.3c0,17.7-14.3,32-32,32c-17.7,0-32-14.3-32-32s14.3-32,32-32C326.9,213.3,341.2,227.7,341.2,245.3z M511.9,245.3
	c0-30.1-18.1-57.2-45.9-68.8C445.6,60.5,334.9-17,218.9,3.4c-85.4,15-153.3,80.3-171.6,165.1L32,256c0,0,34.3,0,37.9-0.3
	c36.2-1.1,71.8-9.7,104.5-25.4c-2.5,4.6-3.9,9.7-3.9,14.9c-0.1,17.7,14.1,32.1,31.7,32.3c17.7,0.1,32.1-14.1,32.3-31.7
	c0.1-16.7-12.7-30.7-29.3-32.1c0.5-0.3,1.1-0.6,1.6-1c59-34,106.6-84.7,136.9-145.7c45.9,27.5,76.2,75,81.8,128.2l1.7,15.9l15.7,2.8
	c15.2,2.8,26.2,16,26.2,31.4h0.1c0,17.7-14.3,32-32,32c-1.8-0.1-3.6-0.2-5.4-0.6l-17.8-3.2l-6,17.1C388.6,346,322.8,405.3,256,405.3
	l0,0c-64.6,0-128.5-55.9-150.2-109.9C92,297.5,78,298.6,64,298.7h-2.6c1.3,3.9,2.3,6.4,2.6,7.2c20.3,51.2,58.1,93.5,106.7,119.5V512
	h170.7v-86.3c44-23.7,79.4-60.7,100.9-105.9c39.2-2.6,69.7-35.2,69.7-74.5H511.9z"/>
</svg>
