<?xml version="1.0" encoding="UTF-8"?><svg id="a" xmlns="http://www.w3.org/2000/svg" viewBox="0 0 98.17 38.9"><g id="b"><path id="c" d="M16.22,31.76c-1.02,0-1.85-.83-1.86-1.85h0V8.93c0-2.94-2.38-5.33-5.33-5.33S3.71,5.99,3.71,8.93V29.9c0,1.02-.83,1.85-1.85,1.85S0,30.92,0,29.9h0V8.93C.05,3.94,4.14-.06,9.13,0c4.91,.05,8.89,4.02,8.94,8.94V29.9c0,1.02-.83,1.85-1.85,1.86h0Z" style="fill:#122b26;"/><path id="d" d="M9.04,12.38c.63,0,1.26,.12,1.85,.35v-3.74c0-1.02-.83-1.85-1.85-1.85s-1.85,.83-1.85,1.85v3.74c.59-.23,1.22-.35,1.86-.35" style="fill:#122b26;"/><path id="e" d="M23.4,7.14c-1.02,0-1.85,.83-1.85,1.85h0V29.96c0,2.94-2.38,5.33-5.33,5.33s-5.33-2.38-5.33-5.33v-13.16c-.38-1.02-1.52-1.55-2.55-1.16-.54,.2-.96,.63-1.16,1.16v13.16c.05,4.99,4.14,8.99,9.13,8.94,4.91-.05,8.89-4.02,8.94-8.94V8.99c0-1.02-.83-1.85-1.85-1.85h0" style="fill:#122b26;"/><path id="f" d="M34.05,18.55c.44-.63,1.02-1.15,1.7-1.52,.66-.36,1.4-.54,2.16-.54,.65-.03,1.29,.14,1.84,.48,.46,.28,.81,.71,1.01,1.21l.28-1.55h1.42l-1.5,8.47h-1.42l.29-1.58c-.39,.51-.89,.93-1.47,1.23-.62,.33-1.31,.49-2.01,.49-.61,.01-1.21-.13-1.75-.43-.5-.28-.91-.7-1.18-1.21-.29-.56-.43-1.19-.42-1.82,0-.32,.03-.63,.09-.94,.14-.82,.46-1.6,.95-2.28m6.32,1.6c.03-.66-.21-1.31-.67-1.79-.46-.44-1.07-.68-1.71-.66-.53,0-1.04,.13-1.51,.37-.49,.26-.91,.63-1.23,1.08-.35,.5-.58,1.07-.68,1.67-.04,.23-.06,.47-.06,.71-.04,.67,.2,1.32,.66,1.8,.45,.44,1.07,.68,1.7,.66,.53,0,1.04-.13,1.51-.38,.49-.26,.92-.64,1.24-1.1,.35-.5,.59-1.07,.69-1.68,.04-.23,.07-.46,.07-.69h-.01Z" style="fill:#122b26;"/><path id="g" d="M51.55,16.62l-1.5,8.47h-1.41l.22-1.24c-.34,.43-.78,.78-1.29,1-.51,.23-1.07,.36-1.64,.36-.77,.04-1.53-.22-2.13-.72-.56-.54-.85-1.29-.8-2.06,0-.29,.03-.57,.08-.85l.88-4.96h1.39l-.84,4.78c-.04,.22-.06,.45-.06,.68-.04,.53,.15,1.05,.51,1.43,.4,.34,.92,.52,1.45,.49,.7,.02,1.37-.23,1.89-.7,.56-.54,.91-1.25,1-2.03v.05l.84-4.7h1.41Z" style="fill:#122b26;"/><path id="h" d="M52.19,18.43c.35-.65,.88-1.19,1.53-1.55,.69-.37,1.47-.56,2.25-.54,.98-.03,1.93,.27,2.71,.85,.75,.6,1.26,1.45,1.43,2.4h-2.81c-.17-.61-.74-1.02-1.38-.99-.46-.01-.89,.2-1.16,.56-.58,1-.58,2.23,0,3.23,.27,.37,.7,.58,1.16,.56,.63,.03,1.21-.38,1.38-.99h2.81c-.18,.94-.69,1.78-1.44,2.38-.78,.59-1.73,.9-2.71,.87-.78,.02-1.56-.17-2.25-.54-.65-.36-1.18-.89-1.53-1.55-.73-1.48-.73-3.22,0-4.7h0Z" style="fill:#122b26;"/><path id="i" d="M69.96,16.47v8.63h-2.64v-1.17c-.28,.39-.66,.71-1.09,.92-.47,.24-.99,.35-1.52,.35-.61,.01-1.21-.14-1.75-.44-.51-.3-.92-.75-1.18-1.29-.29-.61-.43-1.29-.42-1.96v-5.03h2.63v4.68c-.03,.49,.13,.97,.45,1.35,.31,.33,.75,.5,1.21,.48,.46,.02,.9-.15,1.22-.48,.32-.37,.48-.86,.45-1.35v-4.68h2.64Z" style="fill:#122b26;"/><rect id="j" x="71.79" y="13.65" width="2.64" height="11.44" style="fill:#122b26;"/><path id="k" d="M81.08,22.85v2.24h-1.35c-.81,.05-1.61-.2-2.24-.7-.59-.61-.88-1.45-.8-2.3v-3.43h-1.06v-2.2h1.05v-2.1h2.64v2.1h1.73v2.2h-1.73v3.46c-.02,.2,.05,.41,.19,.56,.18,.13,.4,.19,.62,.17h.95Z" style="fill:#122b26;"/><path id="l" d="M91,16.47v8.63h-2.64v-1.17c-.28,.39-.66,.71-1.09,.92-.47,.24-.99,.35-1.52,.35-.61,.01-1.21-.14-1.75-.44-.51-.3-.92-.75-1.17-1.29-.29-.61-.43-1.29-.42-1.96v-5.03h2.63v4.68c-.03,.49,.13,.97,.45,1.35,.31,.33,.75,.5,1.21,.48,.46,.02,.9-.15,1.22-.48,.32-.37,.48-.86,.45-1.35v-4.68h2.63Z" style="fill:#122b26;"/><path id="m" d="M96.62,16.78c.47-.27,1-.42,1.55-.41v2.8h-.73c-.53-.04-1.06,.11-1.48,.43-.37,.4-.55,.95-.49,1.49v4h-2.64v-8.63h2.64v1.44c.29-.46,.69-.84,1.16-1.12" style="fill:#122b26;"/></g></svg>