<svg id="Facebook" xmlns="http://www.w3.org/2000/svg" width="50" height="50" viewBox="0 0 50 50">
  <g id="g4670" transform="translate(0 0)">
    <g id="Grupo_1514" data-name="Grupo 1514">
      <g id="g4678">
        <path id="path4680" d="M-234.312-248a2.76,2.76,0,0,0,2.76-2.76v-44.481a2.76,2.76,0,0,0-2.76-2.76h-44.481a2.759,2.759,0,0,0-2.76,2.76v44.481a2.759,2.759,0,0,0,2.76,2.76Z" transform="translate(281.553 298.002)" fill="#3b5998"/>
      </g>
      <g id="g4682" transform="translate(20.191 7.552)">
        <path id="path4684" d="M-70.969-210.544v-19.362h6.5l.973-7.546h-7.472v-4.818c0-2.185.607-3.674,3.74-3.674l4,0V-252.7a53.479,53.479,0,0,0-5.823-.3c-5.761,0-9.705,3.517-9.705,9.975v5.565h-6.516v7.546h6.516v19.362Z" transform="translate(85.278 252.992)" fill="#fff"/>
      </g>
    </g>
  </g>
</svg>
