<?xml version="1.0" encoding="utf-8"?>
<!-- Generator: Adobe Illustrator 16.0.0, SVG Export Plug-In . SVG Version: 6.00 Build 0)  -->
<!DOCTYPE svg PUBLIC "-//W3C//DTD SVG 1.1//EN" "http://www.w3.org/Graphics/SVG/1.1/DTD/svg11.dtd">
<svg version="1.1" id="Capa_1" xmlns="http://www.w3.org/2000/svg" xmlns:xlink="http://www.w3.org/1999/xlink" x="0px" y="0px"
	 width="841.889px" height="595.281px" viewBox="0 0 841.889 595.281" enable-background="new 0 0 841.889 595.281"
	 xml:space="preserve">
<g>
	<g>
		<path fill="#EE8933" d="M678.946,59.429H480.849V39.619C480.849,17.829,463.021,0,441.23,0H163.895
			c-21.791,0-39.619,17.829-39.619,39.619v217.906c0,108.954,104,108.954,138.667,108.954c5.943,0,9.905-3.962,9.905-9.905
			c0-5.942-3.962-9.904-9.905-9.904c-21.79,0-39.619-17.829-39.619-39.62c0-0.99,0-2.972,0-3.962
			c2.972-20.8,20.801-35.657,41.601-35.657h136.687v19.81h-89.144c-5.942,0-9.904,3.962-9.904,9.905
			c0,22.781,8.914,44.571,23.771,60.419c-2.972,9.905-3.962,18.819-3.962,28.725c0,39.619,23.771,75.276,59.429,91.124
			c0,5.943-2.972,17.829-29.715,17.829c-27.733,0-49.523,21.79-49.523,49.523v49.524h19.81v-49.524
			c0-15.848,11.886-28.724,27.733-29.714l48.533,23.771c3.962,1.981,8.914,3.962,12.876,4.952v50.515h19.81v-50.515
			c4.953-0.99,8.915-1.98,12.877-3.962l48.533-23.771c15.848,0.99,27.733,13.867,27.733,29.715v49.524h19.81v-49.524
			c0-27.733-21.79-49.524-49.523-49.524c-26.743,0-29.715-11.886-29.715-17.829c37.639-15.848,60.42-53.485,59.429-94.096
			c0-1.98,0-5.942,0-6.934c0-13.866-2.972-27.733-9.904-39.619h66.362c20.8,0,38.629,14.857,41.6,35.657
			c1.981,21.791-13.866,41.601-35.657,43.582c-0.99,0-2.971,0-3.962,0c-5.942,0-9.904,3.962-9.904,9.904
			c0,5.943,3.962,9.905,9.904,9.905c34.667,0,138.668,0,138.668-108.953V99.049C718.565,77.258,700.737,59.429,678.946,59.429z
			 M264.924,247.621c-30.705,0-57.448,22.781-61.41,53.486c-0.99,14.857,2.972,29.715,11.886,41.601
			c-48.533-9.905-71.314-36.648-71.314-85.183V39.619c0-10.895,8.914-19.81,19.81-19.81H441.23c10.896,0,19.81,8.915,19.81,19.81
			v188.192c0,10.896-8.914,19.81-19.81,19.81H264.924z M323.363,307.05h107.962c34.667,0,63.392,25.753,68.344,59.43H391.705
			C357.039,366.479,328.315,340.726,323.363,307.05z M448.163,460.575c-3.962,0.99-6.934,4.952-6.934,8.914v5.943
			c-0.99,13.866,6.934,27.733,19.81,33.676l-25.753,12.877c-8.914,3.962-19.81,3.962-28.724,0l-24.762-12.877
			c12.876-5.942,20.8-19.81,19.81-33.676v-4.953c0-3.962-2.972-7.924-6.934-8.914c-31.695-11.886-52.495-41.601-52.495-75.276
			c0-4.952,0-9.905,0.99-13.867c13.867,8.915,30.705,13.867,48.533,13.867h108.953C500.658,419.965,479.859,449.679,448.163,460.575
			z M698.755,326.859c0,48.534-22.781,75.277-71.314,85.182c8.914-11.886,12.876-26.742,11.886-41.6
			c-3.962-30.705-29.715-53.486-61.41-53.486h-80.229c-16.838-18.819-40.609-29.715-66.362-29.715h-9.904v-19.81h19.81
			c21.79,0,39.619-17.829,39.619-39.619V79.239h198.097c10.896,0,19.81,8.914,19.81,19.81V326.859L698.755,326.859z"/>
	</g>
</g>
<g>
	<g>
		<path fill="#EE8933" d="M352.086,108.953h-9.904c-5.943,0-9.905-3.962-9.905-9.904V69.334c0-16.838-12.876-29.715-29.714-29.715
			c-16.839,0-29.715,12.877-29.715,29.715v29.715c0,5.942-3.962,9.904-9.905,9.904c0-5.942-3.962-9.904-9.904-9.904h-39.619
			c-5.943,0-9.905,3.962-9.905,9.904v108.953c0,5.943,3.962,9.905,9.905,9.905h39.619c5.942,0,9.904-3.962,9.904-9.905h89.144
			c16.839,0,29.715-12.876,29.715-29.714v-49.524C381.801,121.83,368.925,108.953,352.086,108.953z M243.133,208.002h-19.81v-89.144
			h19.81V208.002z M361.991,188.192c0,5.942-3.962,9.904-9.905,9.904h-89.144v-69.334c16.839,0,29.715-12.876,29.715-29.714V69.334
			c0-5.942,3.962-9.904,9.905-9.904c5.942,0,9.904,3.962,9.904,9.904v29.715c0,16.838,12.876,29.714,29.715,29.714h9.904
			c5.943,0,9.905,3.962,9.905,9.905V188.192z"/>
	</g>
</g>
<g>
	<g>
		<path fill="#EE8933" d="M669.041,99.049h-39.62c-5.942,0-9.904,3.962-9.904,9.904h-89.144c-16.838,0-29.715,12.877-29.715,29.715
			v49.524c0,16.838,12.877,29.714,29.715,29.714h9.904c5.943,0,9.905,3.962,9.905,9.905v29.714
			c0,16.839,12.876,29.715,29.715,29.715c16.838,0,29.714-12.876,29.714-29.715v-29.714c0-5.943,3.962-9.905,9.905-9.905
			c0,5.943,3.962,9.905,9.904,9.905h39.62c5.942,0,9.904-3.962,9.904-9.905V108.953C678.946,103.01,674.984,99.049,669.041,99.049z
			 M619.517,198.096c-16.839,0-29.715,12.876-29.715,29.715v29.714c0,5.943-3.962,9.905-9.904,9.905
			c-5.943,0-9.905-3.962-9.905-9.905v-29.714c0-16.839-12.876-29.715-29.715-29.715h-9.904c-5.943,0-9.905-3.962-9.905-9.904
			v-49.524c0-5.943,3.962-9.905,9.905-9.905h89.144V198.096z M659.136,208.002h-19.81v-89.144h19.81V208.002z"/>
	</g>
</g>
<g>
	<g>
		<rect x="490.754" y="257.525" fill="#EE8933" width="39.619" height="19.811"/>
	</g>
</g>
<g>
	<g>
		<polygon fill="#EE8933" points="391.705,49.524 391.705,39.619 371.896,39.619 371.896,49.524 361.991,49.524 361.991,69.334 
			371.896,69.334 371.896,79.239 391.705,79.239 391.705,69.334 401.611,69.334 401.611,49.524 		"/>
	</g>
</g>
</svg>
