<?xml version="1.0" encoding="utf-8"?>
<!-- Generator: Adobe Illustrator 16.0.0, SVG Export Plug-In . SVG Version: 6.00 Build 0)  -->
<!DOCTYPE svg PUBLIC "-//W3C//DTD SVG 1.1//EN" "http://www.w3.org/Graphics/SVG/1.1/DTD/svg11.dtd">
<svg version="1.1" id="Capa_1" xmlns="http://www.w3.org/2000/svg" xmlns:xlink="http://www.w3.org/1999/xlink" x="0px" y="0px"
	 width="841.889px" height="595.281px" viewBox="0 0 841.889 595.281" enable-background="new 0 0 841.889 595.281"
	 xml:space="preserve">
<g>
	<g>
		<g>
			<path fill="#2B4742" d="M411.827,399.048c-17.021,0-30.8,14.185-30.8,31.205c0,16.616,13.374,31.206,30.8,31.206
				s31.205-14.589,31.205-31.206C443.032,413.232,428.85,399.048,411.827,399.048z"/>
			<path fill="#2B4742" d="M417.096,162.774c-54.711,0-79.837,32.421-79.837,54.306c0,15.806,13.373,23.101,24.315,23.101
				c21.884,0,12.969-31.206,54.306-31.206c20.264,0,36.475,8.917,36.475,27.559c0,21.886-22.695,34.448-36.069,45.796
				c-11.752,10.132-27.152,26.749-27.152,61.602c0,21.073,5.673,27.152,22.289,27.152c19.858,0,23.91-8.915,23.91-16.615
				c0-21.074,0.407-33.232,22.696-50.658c10.942-8.511,45.391-36.069,45.391-74.165S468.971,162.774,417.096,162.774z"/>
			<path fill="#2B4742" d="M420.945,0c-164.497,0-297.64,133.121-297.64,297.641v274.387c0,12.843,10.41,23.254,23.253,23.254
				h274.387c164.496,0,297.64-133.121,297.64-297.641C718.584,133.143,585.464,0,420.945,0z M420.945,548.774H169.811V297.64
				c0-138.795,112.321-251.134,251.134-251.134c138.795,0,251.134,112.32,251.134,251.134
				C672.078,436.435,559.758,548.774,420.945,548.774z"/>
		</g>
	</g>
</g>
</svg>
