<?xml version="1.0" encoding="utf-8"?>
<!-- Generator: Adobe Illustrator 16.0.0, SVG Export Plug-In . SVG Version: 6.00 Build 0)  -->
<!DOCTYPE svg PUBLIC "-//W3C//DTD SVG 1.1//EN" "http://www.w3.org/Graphics/SVG/1.1/DTD/svg11.dtd">
<svg version="1.1" id="Capa_1" xmlns="http://www.w3.org/2000/svg" xmlns:xlink="http://www.w3.org/1999/xlink" x="0px" y="0px"
	 width="548.176px" height="548.176px" viewBox="0 0 548.176 548.176" enable-background="new 0 0 548.176 548.176"
	 xml:space="preserve">
<path d="M534.754,68.238c-8.945-8.944-19.698-13.417-32.259-13.417H45.681c-12.562,0-23.312,4.472-32.264,13.417
	C4.471,77.185,0,87.936,0,100.499v347.173c0,12.565,4.471,23.317,13.417,32.264c8.951,8.946,19.702,13.419,32.264,13.419h456.814
	c12.561,0,23.312-4.473,32.259-13.419c8.944-8.945,13.422-19.697,13.422-32.264V100.499
	C548.176,87.936,543.698,77.185,534.754,68.238z M511.628,447.679L511.628,447.679c-0.001,2.478-0.904,4.613-2.712,6.427
	c-1.808,1.8-3.949,2.703-6.421,2.703H45.681c-2.473,0-4.615-0.903-6.423-2.71c-1.807-1.813-2.712-3.949-2.712-6.427V274.088h53.375
	V164.449H36.545v-63.954c0-2.475,0.901-4.611,2.712-6.424c1.809-1.803,3.951-2.708,6.423-2.708h456.814
	c2.472,0,4.613,0.901,6.42,2.708c1.809,1.812,2.711,3.949,2.711,6.424v63.954h-56.371v109.639h56.374V447.679z"/>
<g>
	<path d="M170.314,140.548h133.261c22.209,0,39.26,5.5,51.152,16.5c11.888,11,17.835,24.621,17.835,40.858
		c0,13.621-4.243,25.301-12.729,35.044c-5.656,6.497-13.934,11.629-24.829,15.4c16.554,3.983,28.73,10.819,36.535,20.507
		c7.806,9.691,11.709,21.871,11.709,36.537c0,11.943-2.776,22.684-8.329,32.215c-5.554,9.535-13.147,17.078-22.785,22.63
		c-5.973,3.456-14.984,5.972-27.03,7.543c-16.028,2.098-26.662,3.142-31.9,3.142H170.314V140.548z M242.13,230.906h30.958
		c11.104,0,18.831-1.909,23.181-5.735c4.346-3.823,6.521-9.351,6.521-16.579c0-6.703-2.176-11.943-6.521-15.714
		c-4.35-3.771-11.92-5.657-22.709-5.657H242.13V230.906z M242.13,321.423h36.3c12.259,0,20.901-2.173,25.931-6.521
		c5.027-4.345,7.543-10.187,7.543-17.522c0-6.808-2.489-12.28-7.464-16.421c-4.979-4.138-13.699-6.208-26.166-6.208H242.13V321.423z
		"/>
</g>
</svg>
