<?xml version="1.0" encoding="utf-8"?>
<svg version="1.1" xmlns:xlink="http://www.w3.org/1999/xlink" width="29px" height="35px" xmlns="http://www.w3.org/2000/svg">
  <g transform="matrix(1 0 0 1 -20 -87 )">
    <path d="M 28.807421875 25.3043619791667  C 28.9358072916667 26.4512803819444  29 27.6703559027778  29 28.9615885416667  C 29 30.6174045138889  28.5279947916667 32.0377604166667  27.583984375 33.22265625  C 26.6399739583333 34.4075520833333  25.5033854166667 35  24.17421875 35  L 4.82578125 35  C 3.49661458333333 35  2.36002604166667 34.4075520833333  1.416015625 33.22265625  C 0.472005208333333 32.0377604166667  0 30.6174045138889  0 28.9615885416667  C 0 27.6703559027778  0.0641927083333335 26.4512803819444  0.192578125 25.3043619791667  C 0.320963541666667 24.1574435763889  0.558854166666667 23.0029296875  0.90625 21.8408203125  C 1.25364583333333 20.6787109375  1.69544270833333 19.6837022569444  2.231640625 18.8557942708333  C 2.76783854166667 18.0278862847222  3.477734375 17.3518880208333  4.361328125 16.8277994791667  C 5.244921875 16.3037109375  6.26067708333333 16.0416666666667  7.40859375 16.0416666666667  C 9.38723958333333 17.9861111111111  11.7510416666667 18.9583333333333  14.5 18.9583333333333  C 17.2489583333333 18.9583333333333  19.6127604166667 17.9861111111111  21.59140625 16.0416666666667  C 22.7393229166667 16.0416666666667  23.755078125 16.3037109375  24.638671875 16.8277994791667  C 25.522265625 17.3518880208333  26.2321614583333 18.0278862847222  26.768359375 18.8557942708333  C 27.3045572916667 19.6837022569444  27.7463541666667 20.6787109375  28.09375 21.8408203125  C 28.4411458333333 23.0029296875  28.6790364583333 24.1574435763889  28.807421875 25.3043619791667  Z M 20.651171875 2.5634765625  C 22.350390625 4.2724609375  23.2 6.33463541666667  23.2 8.75  C 23.2 11.1653645833333  22.350390625 13.2275390625  20.651171875 14.9365234375  C 18.951953125 16.6455078125  16.9015625 17.5  14.5 17.5  C 12.0984375 17.5  10.048046875 16.6455078125  8.348828125 14.9365234375  C 6.649609375 13.2275390625  5.8 11.1653645833333  5.8 8.75  C 5.8 6.33463541666667  6.649609375 4.2724609375  8.348828125 2.5634765625  C 10.048046875 0.8544921875  12.0984375 0  14.5 0  C 16.9015625 0  18.951953125 0.8544921875  20.651171875 2.5634765625  Z " fill-rule="nonzero" fill="#000000" stroke="none" transform="matrix(1 0 0 1 20 87 )" />
  </g>
</svg>