<?xml version="1.0" encoding="utf-8"?>
<svg version="1.1" xmlns:xlink="http://www.w3.org/1999/xlink" width="24px" height="20px" xmlns="http://www.w3.org/2000/svg">
  <g transform="matrix(1 0 0 1 -233 -67 )">
    <path d="M 15.4285714285714 15.6640625  C 15.5446428571429 15.6640625  15.6473214285714 15.6206597222222  15.7366071428571 15.5338541666667  L 17.6919642857143 13.6328125  C 17.78125 13.5460069444444  17.8258928571429 13.4461805555556  17.8258928571429 13.3333333333333  C 17.8258928571429 13.2204861111111  17.78125 13.1206597222222  17.6919642857143 13.0338541666667  L 14.5714285714286 10  L 17.6919642857143 6.96614583333333  C 17.78125 6.87934027777778  17.8258928571429 6.77951388888889  17.8258928571429 6.66666666666667  C 17.8258928571429 6.55381944444444  17.78125 6.45399305555555  17.6919642857143 6.3671875  L 15.7366071428571 4.46614583333333  C 15.6473214285714 4.37934027777778  15.5446428571429 4.3359375  15.4285714285714 4.3359375  C 15.3125 4.3359375  15.2098214285714 4.37934027777778  15.1205357142857 4.46614583333333  L 12 7.5  L 8.87946428571428 4.46614583333333  C 8.79017857142857 4.37934027777778  8.6875 4.3359375  8.57142857142857 4.3359375  C 8.45535714285714 4.3359375  8.35267857142857 4.37934027777778  8.26339285714286 4.46614583333333  L 6.30803571428572 6.3671875  C 6.21875 6.45399305555555  6.17410714285714 6.55381944444444  6.17410714285714 6.66666666666667  C 6.17410714285714 6.77951388888889  6.21875 6.87934027777778  6.30803571428572 6.96614583333333  L 9.42857142857143 10  L 6.30803571428572 13.0338541666667  C 6.21875 13.1206597222222  6.17410714285714 13.2204861111111  6.17410714285714 13.3333333333333  C 6.17410714285714 13.4461805555556  6.21875 13.5460069444444  6.30803571428572 13.6328125  L 8.26339285714286 15.5338541666667  C 8.35267857142857 15.6206597222222  8.45535714285714 15.6640625  8.57142857142857 15.6640625  C 8.6875 15.6640625  8.79017857142857 15.6206597222222  8.87946428571428 15.5338541666667  L 12 12.5  L 15.1205357142857 15.5338541666667  C 15.2098214285714 15.6206597222222  15.3125 15.6640625  15.4285714285714 15.6640625  Z M 23.3705357142857 0.611979166666667  C 23.7901785714286 1.01996527777778  24 1.51041666666667  24 2.08333333333333  L 24 17.9166666666667  C 24 18.4895833333333  23.7901785714286 18.9800347222222  23.3705357142857 19.3880208333333  C 22.9508928571429 19.7960069444444  22.4464285714286 20  21.8571428571429 20  L 2.14285714285714 20  C 1.55357142857143 20  1.04910714285714 19.7960069444444  0.629464285714286 19.3880208333333  C 0.209821428571429 18.9800347222222  0 18.4895833333333  0 17.9166666666667  L 0 2.08333333333333  C 0 1.51041666666667  0.209821428571429 1.01996527777778  0.629464285714286 0.611979166666667  C 1.04910714285714 0.203993055555554  1.55357142857143 0  2.14285714285714 0  L 21.8571428571429 0  C 22.4464285714286 0  22.9508928571429 0.203993055555554  23.3705357142857 0.611979166666667  Z " fill-rule="nonzero" fill="#000000" stroke="none" transform="matrix(1 0 0 1 233 67 )" />
  </g>
</svg>