<?xml version="1.0" encoding="utf-8"?>
<svg version="1.1" xmlns:xlink="http://www.w3.org/1999/xlink" width="195px" height="148px" xmlns="http://www.w3.org/2000/svg">
  <g transform="matrix(1 0 0 1 -71 -225 )">
    <path d="M 96.64306640625 85.3216145833333  C 97.21435546875 88.7582465277778  97.5 92.5321180555555  97.5 96.6432291666667  C 97.5 100.754340277778  96.32568359375 104.174913194444  93.97705078125 106.904947916667  C 91.62841796875 109.634982638889  88.740234375 111  85.3125 111  L 36.5625 111  C 33.134765625 111  30.24658203125 109.634982638889  27.89794921875 106.904947916667  C 25.54931640625 104.174913194444  24.375 100.754340277778  24.375 96.6432291666667  C 24.375 92.5321180555555  24.66064453125 88.7582465277778  25.23193359375 85.3216145833333  C 25.80322265625 81.8849826388889  26.739501953125 78.5768229166667  28.040771484375 75.3971354166667  C 29.342041015625 72.2174479166667  31.26220703125 69.7122395833333  33.80126953125 67.8815104166667  C 36.34033203125 66.05078125  39.4189453125 65.1354166666667  43.037109375 65.1354166666667  C 43.41796875 65.3923611111111  44.3701171875 65.9704861111111  45.8935546875 66.8697916666667  C 47.4169921875 67.7690972222222  48.607177734375 68.4596354166667  49.464111328125 68.94140625  C 50.321044921875 69.4231770833333  51.44775390625 69.9852430555555  52.84423828125 70.6276041666667  C 54.24072265625 71.2699652777778  55.60546875 71.7356770833333  56.9384765625 72.0247395833333  C 58.271484375 72.3138020833333  59.6044921875 72.4583333333333  60.9375 72.4583333333333  C 62.2705078125 72.4583333333333  63.603515625 72.3138020833333  64.9365234375 72.0247395833333  C 66.26953125 71.7356770833333  67.63427734375 71.2699652777778  69.03076171875 70.6276041666667  C 70.42724609375 69.9852430555555  71.553955078125 69.4231770833333  72.410888671875 68.94140625  C 73.267822265625 68.4596354166667  74.4580078125 67.7690972222222  75.9814453125 66.8697916666667  C 77.5048828125 65.9704861111111  78.45703125 65.3923611111111  78.837890625 65.1354166666667  C 82.4560546875 65.1354166666667  85.53466796875 66.05078125  88.07373046875 67.8815104166667  C 90.61279296875 69.7122395833333  92.532958984375 72.2174479166667  93.834228515625 75.3971354166667  C 95.135498046875 78.5768229166667  96.07177734375 81.8849826388889  96.64306640625 85.3216145833333  Z M 76.219482421875 31.07421875  C 80.440673828125 35.3459201388889  82.55126953125 40.5008680555556  82.55126953125 46.5390625  C 82.55126953125 52.5772569444444  80.440673828125 57.7322048611111  76.219482421875 62.00390625  C 71.998291015625 66.2756076388889  66.904296875 68.4114583333333  60.9375 68.4114583333333  C 54.970703125 68.4114583333333  49.876708984375 66.2756076388889  45.655517578125 62.00390625  C 41.434326171875 57.7322048611111  39.32373046875 52.5772569444444  39.32373046875 46.5390625  C 39.32373046875 40.5008680555556  41.434326171875 35.3459201388889  45.655517578125 31.07421875  C 49.876708984375 26.8025173611111  54.970703125 24.6666666666667  60.9375 24.6666666666667  C 66.904296875 24.6666666666667  71.998291015625 26.8025173611111  76.219482421875 31.07421875  Z M 169.76806640625 87.2005208333333  C 170.33935546875 87.7786458333333  170.625 88.5173611111111  170.625 89.4166666666667  L 170.625 95.5833333333333  C 170.625 96.4826388888889  170.33935546875 97.2213541666667  169.76806640625 97.7994791666667  C 169.19677734375 98.3776041666667  168.466796875 98.6666666666667  167.578125 98  L 112.734375 98  C 111.845703125 98.6666666666667  111.11572265625 98.3776041666667  110.54443359375 97.7994791666667  C 109.97314453125 97.2213541666667  109.6875 96.4826388888889  109.6875 95.5833333333333  L 109.6875 89.4166666666667  C 109.6875 88.5173611111111  109.97314453125 87.7786458333333  110.54443359375 87.2005208333333  C 111.11572265625 86.6223958333333  111.845703125 86.3333333333333  112.734375 86  L 167.578125 86  C 168.466796875 86.3333333333333  169.19677734375 86.6223958333333  169.76806640625 87.2005208333333  Z M 169.625244140625 62.6783854166667  C 170.291748046875 63.3528645833333  170.625 64.171875  170.625 65.1354166666667  L 170.625 70.53125  C 170.625 71.4947916666667  170.291748046875 72.3138020833333  169.625244140625 72.98828125  C 168.958740234375 73.6627604166667  168.1494140625 74  167.197265625 74  L 113.115234375 74  C 112.1630859375 74  111.353759765625 73.6627604166667  110.687255859375 72.98828125  C 110.020751953125 72.3138020833333  109.6875 71.4947916666667  109.6875 70.53125  L 109.6875 65.1354166666667  C 109.6875 64.171875  110.020751953125 63.3528645833333  110.687255859375 62.6783854166667  C 111.353759765625 62.00390625  112.1630859375 61.6666666666667  113.115234375 62  L 167.197265625 62  C 168.1494140625 61.6666666666667  168.958740234375 62.00390625  169.625244140625 62.6783854166667  Z M 169.76806640625 37.8671875  C 170.33935546875 38.4453125  170.625 39.1840277777778  170.625 40.0833333333333  L 170.625 46.25  C 170.625 47.1493055555556  170.33935546875 47.8880208333333  169.76806640625 48.4661458333333  C 169.19677734375 49.0442708333333  168.466796875 49.3333333333333  167.578125 50  L 112.734375 50  C 111.845703125 49.3333333333333  111.11572265625 49.0442708333333  110.54443359375 48.4661458333333  C 109.97314453125 47.8880208333333  109.6875 47.1493055555556  109.6875 46.25  L 109.6875 40.0833333333333  C 109.6875 39.1840277777778  109.97314453125 38.4453125  110.54443359375 37.8671875  C 111.11572265625 37.2890625  111.845703125 37  112.734375 37  L 167.578125 37  C 168.466796875 37  169.19677734375 37.2890625  169.76806640625 37.8671875  Z M 181.907958984375 134.751302083333  C 182.510986328125 134.141059027778  182.8125 133.418402777778  182 132.583333333333  L 182 15.4166666666667  C 182.8125 14.5815972222222  182.510986328125 13.8589409722222  181.907958984375 13.2486979166667  C 181.304931640625 12.6384548611111  180.5908203125 12.3333333333333  179.765625 13  L 15.234375 13  C 14.4091796875 12.3333333333333  13.695068359375 12.6384548611111  13.092041015625 13.2486979166667  C 12.489013671875 13.8589409722222  12.1875 14.5815972222222  13 15.4166666666667  L 13 132.583333333333  C 12.1875 133.418402777778  12.489013671875 134.141059027778  13.092041015625 134.751302083333  C 13.695068359375 135.361545138889  14.4091796875 135.666666666667  15.234375 135  L 48.75 135  L 48.75 126.416666666667  C 48.75 125.517361111111  49.03564453125 124.778645833333  49.60693359375 124.200520833333  C 50.17822265625 123.622395833333  50.908203125 123.333333333333  51.796875 123.333333333333  L 57.890625 123.333333333333  C 58.779296875 123.333333333333  59.50927734375 123.622395833333  60.08056640625 124.200520833333  C 60.65185546875 124.778645833333  60.9375 125.517361111111  60.9375 126.416666666667  L 60.9375 135  L 134.0625 135  L 134.0625 126.416666666667  C 134.0625 125.517361111111  134.34814453125 124.778645833333  134.91943359375 124.200520833333  C 135.49072265625 123.622395833333  136.220703125 123.333333333333  137.109375 123.333333333333  L 143.203125 123.333333333333  C 144.091796875 123.333333333333  144.82177734375 123.622395833333  145.39306640625 124.200520833333  C 145.96435546875 124.778645833333  146.25 125.517361111111  146.25 126.416666666667  L 146.25 135  L 179.765625 135  C 180.5908203125 135.666666666667  181.304931640625 135.361545138889  181.907958984375 134.751302083333  Z M 190.52490234375 4.52864583333334  C 193.50830078125 7.54774305555555  195 11.1770833333333  195 15.4166666666667  L 195 132.583333333333  C 195 136.822916666667  193.50830078125 140.452256944444  190.52490234375 143.471354166667  C 187.54150390625 146.490451388889  183.955078125 148  179.765625 148  L 15.234375 148  C 11.044921875 148  7.45849609375 146.490451388889  4.47509765625 143.471354166667  C 1.49169921875 140.452256944444  0 136.822916666667  0 132.583333333333  L 0 15.4166666666667  C 0 11.1770833333333  1.49169921875 7.54774305555555  4.47509765625 4.52864583333334  C 7.45849609375 1.5095486111111  11.044921875 0  15.234375 0  L 179.765625 0  C 183.955078125 0  187.54150390625 1.5095486111111  190.52490234375 4.52864583333334  Z " fill-rule="nonzero" fill="#000000" stroke="none" transform="matrix(1 0 0 1 71 225 )" />
  </g>
</svg>