<?xml version="1.0" encoding="utf-8"?>
<svg version="1.1" xmlns:xlink="http://www.w3.org/1999/xlink" width="43px" height="36px" xmlns="http://www.w3.org/2000/svg">
  <g transform="matrix(1 0 0 1 -209 -761 )">
    <path d="M 15.5564903846154 30.4261363636364  C 16.2111378205128 31.0738636363636  16.5384615384615 31.8409090909091  16.5384615384615 32.7272727272727  C 16.5384615384615 33.6136363636364  16.2111378205128 34.3806818181818  15.5564903846154 35.0284090909091  C 14.901842948718 35.6761363636364  14.1266025641026 36  13.2307692307692 36  C 12.3349358974359 36  11.5596955128205 35.6761363636364  10.9050480769231 35.0284090909091  C 10.2504006410256 34.3806818181818  9.92307692307692 33.6136363636364  9.92307692307692 32.7272727272727  C 9.92307692307692 31.8409090909091  10.2504006410256 31.0738636363636  10.9050480769231 30.4261363636364  C 11.5596955128205 29.7784090909091  12.3349358974359 29.4545454545455  13.2307692307692 29.4545454545455  C 14.1266025641026 29.4545454545455  14.901842948718 29.7784090909091  15.5564903846154 30.4261363636364  Z M 38.7103365384615 30.4261363636364  C 39.364983974359 31.0738636363636  39.6923076923077 31.8409090909091  39.6923076923077 32.7272727272727  C 39.6923076923077 33.6136363636364  39.364983974359 34.3806818181818  38.7103365384615 35.0284090909091  C 38.0556891025641 35.6761363636364  37.2804487179487 36  36.3846153846154 36  C 35.4887820512821 36  34.7135416666667 35.6761363636364  34.0588942307692 35.0284090909091  C 33.4042467948718 34.3806818181818  33.0769230769231 33.6136363636364  33.0769230769231 32.7272727272727  C 33.0769230769231 31.8409090909091  33.4042467948718 31.0738636363636  34.0588942307692 30.4261363636364  C 34.7135416666667 29.7784090909091  35.4887820512821 29.4545454545455  36.3846153846154 29.4545454545455  C 37.2804487179487 29.4545454545455  38.0556891025641 29.7784090909091  38.7103365384615 30.4261363636364  Z M 42.5090144230769 3.75852272727273  C 42.8363381410256 4.08238636363636  43 4.46590909090909  43 4.90909090909091  L 43 18  C 43 18.4090909090909  42.8578725961538 18.7713068181818  42.5736177884615 19.0866477272727  C 42.2893629807692 19.4019886363636  41.9405048076923 19.5852272727273  41.5270432692308 19.6363636363636  L 14.5486778846154 22.7556818181818  C 14.7726362179487 23.7784090909091  14.8846153846154 24.375  14.8846153846154 24.5454545454545  C 14.8846153846154 24.8181818181818  14.6778846153846 25.3636363636364  14.2644230769231 26  L 38.0384615384615 26  C 38.4863782051282 26.1818181818182  38.8739983974359 26.34375  39.2013221153846 26.6676136363636  C 39.5286458333333 26.9914772727273  39.6923076923077 27.375  39.6923076923077 27.8181818181818  C 39.6923076923077 28.2613636363636  39.5286458333333 28.6448863636364  39.2013221153846 28.96875  C 38.8739983974359 29.2926136363636  38.4863782051282 29.4545454545455  38.0384615384615 29  L 11.5769230769231 29  C 11.1290064102564 29.4545454545455  10.7413862179487 29.2926136363636  10.4140625 28.96875  C 10.0867387820513 28.6448863636364  9.92307692307692 28.2613636363636  9.92307692307692 27.8181818181818  C 9.92307692307692 27.6306818181818  9.99198717948718 27.3622159090909  10.1298076923077 27.0127840909091  C 10.2676282051282 26.6633522727273  10.4054487179487 26.3565340909091  10.5432692307692 26.0923295454545  C 10.6810897435897 25.828125  10.8662860576923 25.4872159090909  11.0988581730769 25.0696022727273  C 11.3314302884615 24.6519886363636  11.4649439102564 24.4005681818182  11.4993990384615 24.3153409090909  L 6.92548076923077 3.27272727272727  L 1.65384615384615 3.27272727272727  C 1.20592948717949 3.27272727272727  0.818309294871795 3.11079545454545  0.490985576923077 2.78693181818182  C 0.163661858974359 2.46306818181818  0 2.07954545454545  0 1.63636363636363  C 0 1.19318181818182  0.163661858974359 0.809659090909086  0.490985576923077 0.485795454545456  C 0.818309294871795 0.161931818181815  1.20592948717949 0  1.65384615384615 0  L 8.26923076923077 0  C 8.5448717948718 0  8.79036458333333 0.0553977272727249  9.00570913461539 0.166193181818183  C 9.22105368589744 0.276988636363636  9.38902243589744 0.409090909090909  9.50961538461539 0.5625  C 9.63020833333333 0.715909090909091  9.7421875 0.924715909090903  9.84555288461539 1.18892045454546  C 9.94891826923077 1.453125  10.017828525641 1.67471590909091  10.0522836538462 1.85369318181818  C 10.0867387820513 2.03267045454546  10.1341145833333 2.28409090909091  10.1944110576923 2.60795454545454  C 10.2547075320513 2.93181818181818  10.2934695512821 3.15340909090909  10.3106971153846 3.27272727272727  L 41.3461538461538 3.27272727272727  C 41.7940705128205 3.27272727272727  42.1816907051282 3.43465909090909  42.5090144230769 3.75852272727273  Z " fill-rule="nonzero" fill="#000000" stroke="none" transform="matrix(1 0 0 1 209 761 )" />
  </g>
</svg>