<?xml version="1.0" encoding="utf-8"?>
<svg version="1.1" xmlns:xlink="http://www.w3.org/1999/xlink" width="37px" height="44px" xmlns="http://www.w3.org/2000/svg">
  <g transform="matrix(1 0 0 1 -123 -759 )">
    <path d="M 3.353125 0  L 33.646875 0  C 34.0901041666667 0  34.5140625 0.0872438863185732  34.91875 0.261731658955719  C 35.5546875 0.51376955276492  36.060546875 0.911213923771754  36.436328125 1.45406477197621  C 36.812109375 1.99691562018065  37 2.59792905926415  37 3.2571050892267  L 37 40.7428949107733  C 37 41.4020709407358  36.812109375 42.0030843798193  36.436328125 42.5459352280238  C 36.060546875 43.0887860762282  35.5546875 43.4862304472351  34.91875 43.7382683410443  C 34.5526041666667 43.8933685833884  34.1286458333333 43.9709187045605  33.646875 43.9709187045605  C 32.721875 43.9709187045605  31.9221354166667 43.6607182198722  31.24765625 43.0403172504957  L 18.5 30.7098479841375  L 5.75234375 43.0403172504957  C 5.05859375 43.6801057501652  4.25885416666667 44  3.353125 44  C 2.90989583333333 44  2.4859375 43.9127561136814  2.08125 43.7382683410443  C 1.4453125 43.4862304472351  0.939453125 43.0887860762282  0.563671875 42.5459352280238  C 0.187890625 42.0030843798193  0 41.4020709407358  0 40.7428949107733  L 0 3.2571050892267  C 0 2.59792905926415  0.187890625 1.99691562018065  0.563671875 1.45406477197621  C 0.939453125 0.911213923771754  1.4453125 0.51376955276492  2.08125 0.261731658955719  C 2.4859375 0.0872438863185732  2.90989583333333 0  3.353125 0  Z " fill-rule="nonzero" fill="#000000" stroke="none" transform="matrix(1 0 0 1 123 759 )" />
  </g>
</svg>