<?xml version="1.0" encoding="utf-8"?>
<!-- Generator: Adobe Illustrator 26.1.0, SVG Export Plug-In . SVG Version: 6.00 Build 0)  -->
<svg version="1.1" id="Capa_1" xmlns="http://www.w3.org/2000/svg" xmlns:xlink="http://www.w3.org/1999/xlink" x="0px" y="0px"
	 viewBox="0 0 512 512" style="enable-background:new 0 0 512 512;" xml:space="preserve">
<style type="text/css">
	.st0{fill:#FFFFFF;}
</style>
<path class="st0" d="M451,241c-51.6,0-79,61-45,99.6v0.4c-72.7,46.4-227,46.6-300,0v-0.4c34-38.6,6.5-99.6-45-99.6
	c-51.6,0-79,61.1-45,99.6V497c0,8.3,6.7,15,15,15h60c8.3,0,15-6.7,15-15v-24.3c91.6,31.2,208.8,31,300,0V497c0,8.3,6.7,15,15,15h60
	c8.3,0,15-6.7,15-15V340.6C530,302,502.5,241,451,241L451,241z M451,271c16.5,0,30,13.5,30,30s-13.5,30-30,30s-30-13.5-30-30
	S434.5,271,451,271z M61,271c16.5,0,30,13.5,30,30s-13.5,30-30,30s-30-13.5-30-30S44.5,271,61,271z M46,482V359.1
	c9.6,2.5,20,2.6,30,0V482H46z M106,440.8v-65.4c81.6,40.8,218.6,40.7,300,0v65.3C317,474.3,195.3,474.4,106,440.8z M436,482V359.1
	c9.6,2.5,20,2.6,30,0V482H436z"/>
<path class="st0" d="M137,241h240c8.3,0,15-6.7,15-15V15c0-8.3-6.7-15-15-15H137c-8.3,0-15,6.7-15,15v211
	C122,234.3,128.7,241,137,241z M152,151h14c8.3,0,15,6.7,15,15v45h-29V151z M331,211v-40c0-19.3-15.7-35-35-35h-17.5
	c-12.4,0-22.5-10.1-22.5-22.5S266.1,91,278.5,91H362v120H331z M362,61h-83.5c-28.9,0-52.5,23.6-52.5,52.5s23.6,52.5,52.5,52.5H296
	c2.8,0,5,2.2,5,5v40h-90v-45c0-24.8-20.2-45-45-45h-14V91h14c24.8,0,45-20.2,45-45V30h151V61z M181,30v16c0,8.3-6.7,15-15,15h-14V30
	H181z"/>
</svg>
