<?xml version="1.0" encoding="utf-8"?>
<!-- Generator: Adobe Illustrator 26.1.0, SVG Export Plug-In . SVG Version: 6.00 Build 0)  -->
<svg version="1.1" id="Capa_1" xmlns="http://www.w3.org/2000/svg" xmlns:xlink="http://www.w3.org/1999/xlink" x="0px" y="0px"
	 viewBox="0 0 512 512" style="enable-background:new 0 0 512 512;" xml:space="preserve">
<style type="text/css">
	.st0{fill:#FFFFFF;}
</style>
<g>
	<g>
		<path class="st0" d="M428.4,466.6L380.3,390c-2.9-4.7-9.1-6.1-13.8-3.1c-4.7,2.9-6.1,9.1-3.1,13.8l23.1,36.7l-20.2,13.9
			c-50.8-64.9-131.5-167.8-131.5-167.8c-1.7-2.1-4.1-3.5-6.8-3.8c-2.7-0.3-5.3,0.5-7.4,2.2L157.6,333c-3.3,2.7-4.5,7.2-3.1,11.2
			l29.7,81.8l-25.4,11.6l-33.6-67.2c-9.5-18.9-6.7-41.4,7-57.5l62.5-72.9l63.1-12.1c18.3,7.8,37.9,27.3,36,58.7
			c-0.1,2.1,0.4,4.1,1.5,5.9l20.2,32.1c2.9,4.7,9.1,6.1,13.8,3.1c4.7-2.9,6.1-9.1,3.1-13.8l-18.5-29.4c0.8-36-20.9-61.9-45.1-73.5
			l0.4-39.7c5.6-4.5,9.8-10.8,11.7-17.9c1.9-7.1,1.4-14.7-1.2-21.6c4,1.3,8.2,1.9,12.7,1.9c23.4,0,42.4-19,42.4-42.4
			c0-11.7-4.7-22.2-12.4-29.9h72.1c16.9,0,30.7-13.8,30.7-30.7S411.3,0,394.4,0h-85.3c-29,0-57.1,12-77.1,32.9l-48.2,50.2
			c-6.2,4.3-11.4,10.1-15,17.1c-3,5.9-4.8,12.4-5.1,18.9l-44-14.1c-16.1-5.1-33.1,3.1-38.7,18.7c-2.8,7.9-2.4,16.4,1.4,24
			c3.7,7.5,10,13,17.9,15.6c0,0,50.5,19,50.7,19c6.6,2.1,13.5,3.8,20.6,5.1l6,41.7L117,299.9c-19,22.2-22.8,53.3-9.7,79.4
			l57.9,115.6c5.4,10.8,16.1,17.1,27.5,17.1c3.8,0,7.8-0.7,11.6-2.2c15.6-6.2,23.3-23.4,17.5-39.2l-46-126.5l49.5-40.3
			c25.4,32.4,120.7,154,154.1,196.6c9.8,12.5,27.7,15.1,40.7,6l0.4-0.3C433.2,497.2,436.7,479.8,428.4,466.6L428.4,466.6z
			 M183.6,123.8c-0.2-4.7,0.8-10.2,3-14.4c4.7-9,13.8-14.6,24-14.6h0.1L250,95c0.5,5.7,2.1,11,4.6,15.8c-7.7-1.6-16-0.5-23.4,3.5
			c-4.1,2.2-8.5,4.1-12.9,5.7C207,123.8,195.2,125.1,183.6,123.8L183.6,123.8z M292.3,113.7c-12.4,0-22.4-10.1-22.4-22.4
			s10.1-22.4,22.4-22.4c12.4,0,22.4,10.1,22.4,22.4S304.7,113.7,292.3,113.7z M246.4,46.7c16.3-17,39.2-26.7,62.7-26.7h85.3
			c5.9,0,10.7,4.8,10.7,10.7s-4.8,10.7-10.7,10.7h-91.9c-11.6,0-22.7,4.7-30.8,12.8c-8.3,4.6-14.9,11.9-18.6,20.8l-33.7-0.1
			L246.4,46.7z M107,144.6c-0.2-0.1-0.3-0.1-0.5-0.2c-2.8-0.9-5-2.8-6.3-5.5c-1.3-2.6-1.5-5.6-0.5-8.4c1.9-5.3,8.1-8.2,13.8-6.4
			l47.8,15.3c20.8,6.6,42.7,6.4,63.3-0.6c5.6-1.9,11-4.3,16.1-7c6.7-3.7,15.1-1.4,19.1,5.1v0c2.1,3.4,2.7,7.4,1.6,11.2
			c-1,3.9-3.5,7-7.1,8.9c-18,9.7-38.1,14.3-58.1,13.3c-13.3-0.7-26.9-3.1-39.2-7L107,144.6z M195.4,190.4c2.1,0.1,4.2,0.2,6.3,0.2
			c16.1,0,32.2-3,47.3-9l-0.3,27.7l-52.5,10.1l-4.2-29.1C193.2,190.2,194.3,190.3,195.4,190.4L195.4,190.4z M196.7,491.2
			c-5.3,2.1-11.2-0.1-13.7-5.2l-15.3-30.5l23.3-10.6l11.8,32.6C204.9,482.9,202.2,489,196.7,491.2L196.7,491.2z M409,489.8l-0.4,0.3
			c-4.3,3-10.3,2.2-13.5-1.9c-4.5-5.7-10.1-12.9-16.5-21.1l18.5-12.7l14.4,22.9C414.1,481.4,413,486.9,409,489.8L409,489.8z"/>
	</g>
</g>
</svg>
