<?xml version="1.0" encoding="utf-8"?>
<!-- Generator: Adobe Illustrator 26.1.0, SVG Export Plug-In . SVG Version: 6.00 Build 0)  -->
<svg version="1.1" id="Capa_1" xmlns="http://www.w3.org/2000/svg" xmlns:xlink="http://www.w3.org/1999/xlink" x="0px" y="0px"
	 viewBox="0 0 512 512" style="enable-background:new 0 0 512 512;" xml:space="preserve">
<style type="text/css">
	.st0{fill:#FFFFFF;}
</style>
<g>
	<path class="st0" d="M331,76c0-41.5-33.5-76-75-76c-41.5,0-75,34.5-75,76c0,41.4,33.6,75,75,75S331,117.4,331,76z M211,76
		c0-24.9,20.6-46,45-46s45,21.1,45,46c0,24.8-20.2,45-45,45S211,100.8,211,76z"/>
	<path class="st0" d="M480,212.9c1.3-5.4,2-11.1,2-16.9c0-41.4-33.6-75-75-75s-75,33.6-75,75s33.6,75,75,75c5.1,0,10.2-0.5,15-1.5
		v34.1c-4.7-1.7-9.7-2.6-15-2.6c-9.1,0-17.8,2.7-25.3,7.8l-90.1,59.4c-12.9,8.3-20.6,22.5-20.6,37.8v91c0,8.3,6.7,15,15,15h91
		c8.3,0,15-6.7,15-15c0-9,4.5-17.8,11.5-22.5l75.1-50.1c20.9-13.9,33.4-37.3,33.4-62.4V256C512,235.7,498.5,218.5,480,212.9
		L480,212.9z M407,241c-24.8,0-45-20.2-45-45s20.2-45,45-45s45,20.2,45,45S431.8,241,407,241z M482,362.1c0,15.1-7.5,29.1-20,37.4
		l-75.1,50.1c-11.2,7.5-19.3,19.2-22.9,32.4h-63v-76c0-5.1,2.6-9.8,6.9-12.6c0,0,0.1-0.1,0.1-0.1c93.3-61.5,90.4-59.6,90.9-59.9
		c2.4-1.6,5.2-2.4,8.1-2.4c8.3,0,15,6.7,15,15c0,5-2.4,9.5-6.5,12.4c-0.1,0-46.8,31.2-46.8,31.2c-6.9,4.6-8.8,13.9-4.2,20.8
		c4.6,6.9,13.9,8.8,20.8,4.2l46.1-30.8c12.9-8.3,20.5-22.5,20.5-37.8v-90c0,0,0,0,0,0c5.7-4.3,10.7-9.3,15-15c0,0,0,0,0,0
		c8.3,0,15,6.7,15,15L482,362.1L482,362.1z"/>
	<path class="st0" d="M33.4,424.5l75.1,50.1c7,4.7,11.5,13.5,11.5,22.5c0,8.3,6.7,15,15,15h91c8.3,0,15-6.7,15-15v-91
		c0-15.3-7.7-29.5-20.6-37.8l-90.1-59.4c-7.5-5.1-16.2-7.8-25.3-7.8c-5.3,0-10.3,0.9-15,2.6v-34.1c4.8,1,9.9,1.5,15,1.5
		c41.4,0,75-33.6,75-75s-33.6-75-75-75s-75,33.6-75,75c0,5.8,0.7,11.5,2,16.9C13.5,218.5,0,235.7,0,256v106.1
		C0,387.2,12.5,410.5,33.4,424.5L33.4,424.5z M105,151c24.8,0,45,20.2,45,45s-20.2,45-45,45s-45-20.2-45-45S80.2,151,105,151z
		 M30,256c0-8.3,6.7-15,15-15c0,0,0,0,0,0c4.3,5.7,9.3,10.7,15,15c0,0,0,0,0,0v90c0,15.3,7.7,29.5,20.6,37.8l46.1,30.7
		c6.9,4.6,16.2,2.7,20.8-4.2c4.6-6.9,2.7-16.2-4.2-20.8l-46.6-31.1c0,0-0.1-0.1-0.2-0.1C92.4,355.5,90,351,90,346
		c0-8.3,6.7-15,15-15c2.9,0,5.7,0.8,8.1,2.4c0.4,0.2-5-3.3,90.8,59.9c0,0,0.1,0.1,0.1,0.1c4.3,2.8,6.9,7.5,6.9,12.6v76h-63
		c-3.5-13.2-11.6-24.9-22.9-32.4L50,399.5c-12.5-8.4-20-22.4-20-37.4L30,256z"/>
</g>
</svg>
