<?xml version="1.0" encoding="utf-8"?>
<!-- Generator: Adobe Illustrator 26.1.0, SVG Export Plug-In . SVG Version: 6.00 Build 0)  -->
<svg version="1.1" id="Capa_1" xmlns="http://www.w3.org/2000/svg" xmlns:xlink="http://www.w3.org/1999/xlink" x="0px" y="0px"
	 viewBox="0 0 512 512" style="enable-background:new 0 0 512 512;" xml:space="preserve">
<style type="text/css">
	.st0{fill:#FFFFFF;}
</style>
<g>
	<path class="st0" d="M340.9,288.3L321.5,256l19.4-32.3c6-10-1.2-22.7-12.9-22.7h-38.7l-19.9-39.7c-5.5-11-21.3-11-26.8,0L222.7,201
		H184c-11.6,0-18.9,12.7-12.9,22.7l19.4,32.3l-19.4,32.3c-6,10,1.2,22.7,12.9,22.7h38.7l19.9,39.7c5.5,11,21.3,11,26.8,0l19.9-39.7
		H328C339.6,311,346.9,298.3,340.9,288.3L340.9,288.3z M291.1,263.7l10.4,17.3H280c-5.7,0-10.9,3.2-13.4,8.3L256,310.5l-10.6-21.2
		c-2.5-5.1-7.7-8.3-13.4-8.3h-21.5l10.4-17.3c2.9-4.8,2.9-10.7,0-15.4L210.5,231H232c5.7,0,10.9-3.2,13.4-8.3l10.6-21.2l10.6,21.2
		c2.5,5.1,7.7,8.3,13.4,8.3h21.5l-10.4,17.3C288.3,253,288.3,259,291.1,263.7z"/>
	<path class="st0" d="M256,127c8.3,0,15-6.7,15-15V15c0-8.3-6.7-15-15-15s-15,6.7-15,15v97C241,120.3,247.7,127,256,127z"/>
	<path class="st0" d="M143.6,164.8c5.9,5.9,15.4,5.9,21.2,0c5.9-5.9,5.9-15.4,0-21.2L96.9,75.7c-5.9-5.9-15.4-5.9-21.2,0
		s-5.9,15.4,0,21.2L143.6,164.8z"/>
	<path class="st0" d="M127,256c0-8.3-6.7-15-15-15H15c-8.3,0-15,6.7-15,15s6.7,15,15,15h97C120.3,271,127,264.3,127,256z"/>
	<path class="st0" d="M164.8,347.2c-5.9-5.9-15.4-5.9-21.2,0l-67.9,67.9c-5.9,5.9-5.9,15.4,0,21.2c5.9,5.9,15.4,5.9,21.2,0
		l67.9-67.9C170.6,362.6,170.6,353.1,164.8,347.2L164.8,347.2z"/>
	<path class="st0" d="M256,385c-8.3,0-15,6.7-15,15v97c0,8.3,6.7,15,15,15s15-6.7,15-15v-97C271,391.7,264.3,385,256,385z"/>
	<path class="st0" d="M368.4,347.2c-5.9-5.9-15.4-5.9-21.2,0s-5.9,15.4,0,21.2l67.9,67.9c5.9,5.9,15.4,5.9,21.2,0
		c5.9-5.9,5.9-15.4,0-21.2L368.4,347.2z"/>
	<path class="st0" d="M497,241h-97c-8.3,0-15,6.7-15,15s6.7,15,15,15h97c8.3,0,15-6.7,15-15S505.3,241,497,241z"/>
	<path class="st0" d="M347.2,164.8c5.9,5.9,15.4,5.9,21.2,0l67.9-67.9c5.9-5.9,5.9-15.4,0-21.2c-5.9-5.9-15.4-5.9-21.2,0l-67.9,67.9
		C341.4,149.4,341.4,158.9,347.2,164.8z"/>
	<path class="st0" d="M168,55c8.3,0,15-6.7,15-15s-6.7-15-15-15c-8.4,0-15,6.8-15,15C153,48.3,159.7,55,168,55z"/>
	<path class="st0" d="M168,457c-8.4,0-15,6.8-15,15c0,8.3,6.7,15,15,15c8.3,0,15-6.7,15-15S176.3,457,168,457z"/>
	<path class="st0" d="M40,175c8.3,0,15-6.7,15-15s-6.7-15-15-15c-8.4,0-15,6.8-15,15C25,168.3,31.7,175,40,175z"/>
	<path class="st0" d="M40,337c-8.4,0-15,6.8-15,15c0,8.3,6.7,15,15,15c8.3,0,15-6.7,15-15S48.3,337,40,337z"/>
	<path class="st0" d="M344,55c8.3,0,15-6.7,15-15s-6.7-15-15-15c-8.4,0-15,6.8-15,15C329,48.3,335.7,55,344,55z"/>
	<path class="st0" d="M344,457c-8.4,0-15,6.8-15,15c0,8.3,6.7,15,15,15c8.3,0,15-6.7,15-15S352.3,457,344,457z"/>
	<path class="st0" d="M472,175c8.3,0,15-6.7,15-15s-6.7-15-15-15c-8.4,0-15,6.8-15,15C457,168.3,463.7,175,472,175z"/>
	<path class="st0" d="M472,337c-8.4,0-15,6.8-15,15c0,8.3,6.7,15,15,15c8.3,0,15-6.7,15-15S480.3,337,472,337z"/>
</g>
</svg>
