<?xml version="1.0" encoding="utf-8"?>
<!-- Generator: Adobe Illustrator 26.1.0, SVG Export Plug-In . SVG Version: 6.00 Build 0)  -->
<svg version="1.1" id="Layer_1" xmlns="http://www.w3.org/2000/svg" xmlns:xlink="http://www.w3.org/1999/xlink" x="0px" y="0px"
	 viewBox="0 0 512 512" style="enable-background:new 0 0 512 512;" xml:space="preserve">
<style type="text/css">
	.st0{fill:#FFFFFF;}
</style>
<g>
	<path class="st0" d="M443.3,266.6c5.9-5.8,5.9-15.3,0.1-21.2c-5.8-5.9-15.3-5.9-21.2-0.1c-7.5,7.5-19.5,7.5-27,0
		c-5.9-5.8-15.4-5.8-21.2,0.1c-5.8,5.9-5.8,15.4,0.1,21.2C393.2,285.8,424.1,285.8,443.3,266.6z"/>
	<path class="st0" d="M277.5,395.1c5.9,5.9,15.5,5.9,21.4-0.1c14.1-14,33.6-22.1,53.5-22.1c19.9,0,39.3,8,53.4,22
		c5.8,6.1,15.5,6.2,21.4,0.2c5.9-5.9,5.8-15.4,0-21.2c-19.7-19.7-47-31-74.9-31s-55.2,11.3-74.9,31
		C271.7,379.7,271.6,389.2,277.5,395.1L277.5,395.1z"/>
	<path class="st0" d="M497,144.6H319.2V15c0-8.3-6.7-15-15-15H15C6.7,0,0,6.7,0,15v175.9c0,90.6,67.9,166.5,157.9,176.5
		c0.6,0.1,1.1,0.1,1.7,0.1s1.1,0,1.7-0.1c11.5-1.3,22.6-3.6,33.3-7c11.1,79.3,74.5,142.5,156.2,151.5c0.5,0.1,1.1,0.1,1.7,0.1
		s1.1,0,1.7-0.1c90-10,157.9-85.9,157.9-176.5V159.6C512,151.3,505.3,144.6,497,144.6L497,144.6z M159.6,337.3
		C85.6,328.2,30,265.6,30,190.9V30h259.2v160.9C289.2,265.6,233.6,328.2,159.6,337.3z M482,335.4c0,74.7-55.6,137.4-129.6,146.4
		c-69.6-8.5-123-64.5-129-133.4c29.8-15.4,54.5-39,71.3-67.6c13,0.4,26.2-4.4,36.1-14.3c5.9-5.8,5.9-15.3,0.1-21.2
		c-5.4-5.4-13.9-5.9-19.8-1.2c5.3-16.9,8.1-34.8,8.1-53.3v-16.2H482L482,335.4z"/>
	<path class="st0" d="M213.1,213.4c-14.1,14-33.6,22.1-53.5,22.1c-19.9,0-39.3-8-53.4-22c-5.8-6.1-15.5-6.2-21.5-0.2
		c-5.9,5.9-5.8,15.4,0,21.2c19.7,19.7,47,31,74.9,31c27.9,0,55.2-11.3,74.9-31c5.8-5.8,5.9-15.3,0-21.2
		C228.6,207.4,219,207.4,213.1,213.4L213.1,213.4z"/>
	<path class="st0" d="M250.5,116.8c-19.3-19.2-50.1-19.1-69.4,0c-5.9,5.8-5.9,15.3-0.1,21.2c5.8,5.9,15.3,5.9,21.2,0.1
		c7.5-7.5,19.5-7.5,27,0c5.9,5.9,15.4,5.8,21.2-0.1C256.4,132.2,256.4,122.7,250.5,116.8z"/>
	<path class="st0" d="M116.9,138.1c5.9,5.9,15.4,5.8,21.2-0.1c5.8-5.9,5.8-15.4-0.1-21.2c-19.3-19.2-50.1-19.1-69.4,0
		c-5.9,5.8-5.9,15.3-0.1,21.2c5.8,5.9,15.3,5.9,21.2,0.1C97.4,130.6,109.4,130.6,116.9,138.1z"/>
</g>
</svg>
