<?xml version="1.0" encoding="utf-8"?>
<!-- Generator: Adobe Illustrator 26.1.0, SVG Export Plug-In . SVG Version: 6.00 Build 0)  -->
<svg version="1.1" id="Capa_1" xmlns="http://www.w3.org/2000/svg" xmlns:xlink="http://www.w3.org/1999/xlink" x="0px" y="0px"
	 viewBox="0 0 512 512" style="enable-background:new 0 0 512 512;" xml:space="preserve">
<style type="text/css">
	.st0{fill:#FFFFFF;}
</style>
<path class="st0" d="M118.9,423.5c-5.6-18.4-22.8-31.9-43-31.9c-20.2,0-37.4,13.4-43,31.8c-7,2.1-13.5,5.8-19,11.1
	C4.9,443,0,454.4,0,466.5c0,12.1,4.9,23.4,13.9,32c8.7,8.3,20.1,12.9,32,12.9h59.9c24.8,0,44.9-20.2,44.9-44.9
	C150.8,446.2,137.4,429.1,118.9,423.5z M105.9,481.5H45.9c-8.5,0-16-7-16-15c0-8,7.5-15,16-15h15v-15c0-8.3,6.7-15,15-15
	s15,6.7,15,15v15h15c8.3,0,15,6.7,15,15S114.1,481.5,105.9,481.5z"/>
<path class="st0" d="M503.2,180.8c5.4-9,8.3-19.3,8.3-30c0-21.8-12.4-41.6-31.5-52.1C484.8,63,456.7,31,420.5,31
	c-7,0-13.8,1.2-20.2,3.5C383.1,12.9,357.5,0,330.6,0S278.1,12.9,261,34.5c-6.4-2.3-13.3-3.5-20.2-3.5c-36.4,0-64.2,32.3-59.4,67.8
	c-18.5,10.4-30.5,30.2-30.5,52c0,10.9,2.9,21.1,8.1,30h-9.6l33,330.6H479l33-330.6H503.2z M180.8,150.8c0-13.4,9.1-25.2,22.2-28.8
	l16.3-4.4c-6.7-16.8-8.5-19.8-8.5-26.8c0-16.5,13.4-30,30-30c11.2,0,16.5,5,30.1,14.2l8.1-14C290,41.9,309.9,30,330.6,30
	s40.6,12,51.7,31.2l8.1,14c13.6-9.3,18.9-14.2,30.1-14.2c16.5,0,30,13.4,30,30c0,7.1-1.9,10.3-8.5,26.8l16.3,4.4
	c13.4,3.6,23.2,15.7,23.2,28.8c0,16.2-14.2,30-31,30H210.8C194.2,180.8,180.8,167.4,180.8,150.8z M330.6,405.6
	c-33.3,0-59.9-27.1-59.9-59.9c0-33,26.9-59.9,59.9-59.9s59.9,26.9,59.9,59.9C390.6,378.5,363.8,405.6,330.6,405.6z M315.6,257
	c-18.6,3.1-35.3,12-48.1,24.7l-3.5-70.9h51.7V257z M274.2,415.5c11.8,9.5,25.9,16.1,41.5,18.7v47.2h-38.2L274.2,415.5z M345.6,434.3
	c15.5-2.6,29.7-9.2,41.5-18.7l-3.3,65.9h-38.2V434.3z M393.8,281.7c-12.9-12.7-29.5-21.6-48.1-24.7v-46.2h51.7L393.8,281.7z
	 M182.4,210.8H234c0.3,6.9,13.1,263.2,13.5,270.7h-38.1L182.4,210.8z M451.9,481.5h-38.1c0.4-7.5,13.1-263.8,13.5-270.7h51.6
	L451.9,481.5z"/>
<path class="st0" d="M345.6,90.9c-24.8,0-45,20.2-45,44.9h30c0-8.3,6.7-15,15-15s15,6.7,15,15h30C390.6,111.1,370.4,90.9,345.6,90.9
	z"/>
</svg>
