<?xml version="1.0" encoding="utf-8"?>
<!-- Generator: Adobe Illustrator 26.1.0, SVG Export Plug-In . SVG Version: 6.00 Build 0)  -->
<svg version="1.1" id="Capa_1" xmlns="http://www.w3.org/2000/svg" xmlns:xlink="http://www.w3.org/1999/xlink" x="0px" y="0px"
	 viewBox="0 0 512 512" style="enable-background:new 0 0 512 512;" xml:space="preserve">
<style type="text/css">
	.st0{fill:#FFFFFF;}
</style>
<g>
	<path class="st0" d="M471,262.8c22.9-2,41-21.3,41-44.8V78c0-24.8-20.2-45-45-45H318c-24.8,0-45,20.2-45,45v59H86
		c-24.8,0-45,20.2-45,45v180c0,5.3,0.9,10.3,2.6,15H27c-14.9,0-27,12.1-27,27c0,41.4,33.6,75,75,75h362c41.4,0,75-33.6,75-75
		c0-14.9-12.1-27-27-27h-16.6c1.7-4.7,2.6-9.7,2.6-15V262.8z M303,78c0-8.3,6.7-15,15-15h149c8.3,0,15,6.7,15,15v140
		c0,8.3-6.7,15-15,15H328c-2.8,0-5.6,0.8-8,2.3l-30.2,18.9l12.6-41.9c0.4-1.4,0.6-2.9,0.6-4.3V78z M437,449H75
		c-23.8,0-43.4-18.6-44.9-42h451.8C480.4,430.4,460.8,449,437,449z M143,264c0-9.4,7.6-17,17-17s17,7.6,17,17s-7.6,17-17,17
		S143,273.4,143,264z M135,328c0-9.1,11.7-17,25-17c7.1,0,14,2.2,18.9,6.1c2.3,1.8,6.1,5.7,6.1,10.9v49h-50V328z M215,377v-49
		c0-13-6.3-25.5-17.4-34.3c-0.2-0.2-0.5-0.4-0.8-0.6c6.3-8,10.1-18.1,10.1-29.1c0-25.9-21.1-47-47-47s-47,21.1-47,47
		c0,11,3.8,21.1,10.2,29.1c-11.1,8.6-18.2,21-18.2,34.9v49H86c-8.3,0-15-6.7-15-15V182c0-8.3,6.7-15,15-15h187v38.8l-11.9,39.8
		c-3.6,12.1,0.5,24.8,10.5,32.5c5.4,4.1,11.8,6.2,18.2,6.2c5.5,0,11-1.5,15.9-4.6l26.6-16.6H441v99c0,8.3-6.7,15-15,15H215z"/>
	<path class="st0" d="M408,169h-32c-8.3,0-15,6.7-15,15s6.7,15,15,15h32c8.3,0,15-6.7,15-15S416.3,169,408,169z"/>
	<path class="st0" d="M352,127h80c8.3,0,15-6.7,15-15s-6.7-15-15-15h-80c-8.3,0-15,6.7-15,15S343.7,127,352,127z"/>
</g>
</svg>
